<svg width="1522" height="653" viewBox="0 0 1522 653" fill="none" xmlns="http://www.w3.org/2000/svg">
<rect x="77.8735" y="75.1138" width="1436.63" height="570.066" fill="black" stroke="black" stroke-width="15"/>
<rect x="7.5" y="7.5" width="1436.63" height="570.066" fill="#6B9FFF" stroke="black" stroke-width="15"/>
<g clip-path="url(#clip0_2006_114)">
<path d="M507.545 68.9507H113.056C109.871 68.9507 107.289 71.5301 107.289 74.712V456.496C107.289 459.678 109.871 462.257 113.056 462.257H507.545C510.731 462.257 513.313 459.678 513.313 456.496V74.712C513.313 71.5301 510.731 68.9507 507.545 68.9507Z" fill="black"/>
<mask id="mask0_2006_114" style="mask-type:luminance" maskUnits="userSpaceOnUse" x="93" y="52" width="395" height="394">
<path d="M481.785 52.4351H99.5989C96.4137 52.4351 93.8315 55.0145 93.8315 58.1964V439.98C93.8315 443.162 96.4137 445.742 99.5989 445.742H481.785C484.97 445.742 487.552 443.162 487.552 439.98V58.1964C487.552 55.0145 484.97 52.4351 481.785 52.4351Z" fill="white"/>
</mask>
<g mask="url(#mask0_2006_114)">
<path d="M481.785 52.4351H99.5989C96.4137 52.4351 93.8315 55.0145 93.8315 58.1964V439.98C93.8315 443.162 96.4137 445.742 99.5989 445.742H481.785C484.97 445.742 487.552 443.162 487.552 439.98V58.1964C487.552 55.0145 484.97 52.4351 481.785 52.4351Z" fill="#FFCB05" stroke="black" stroke-width="40"/>
</g>
<path d="M148.377 348.567V146.921H275.26V181.489H186.442V230.172H268.339V264.74H186.442V348.567H148.377ZM296.651 348.567V146.921H379.702C392.39 146.921 403.54 149.513 413.152 154.699C422.957 159.692 430.551 166.797 435.934 176.016C441.509 185.234 444.296 196.18 444.296 208.855V212.888C444.296 225.371 441.413 236.317 435.645 245.728C430.07 254.946 422.38 262.147 412.576 267.333C402.963 272.326 392.005 274.822 379.702 274.822H334.716V348.567H296.651ZM334.716 240.254H375.953C384.988 240.254 392.294 237.758 397.869 232.765C403.444 227.771 406.232 220.954 406.232 212.312V209.431C406.232 200.789 403.444 193.972 397.869 188.979C392.294 183.985 384.988 181.489 375.953 181.489H334.716V240.254Z" fill="black"/>
</g>
<path d="M670.781 252.994V147.994H736.781V165.994H690.581V191.344H733.181V209.344H690.581V252.994H670.781ZM747.908 252.994V147.994H791.108C797.708 147.994 803.508 149.344 808.508 152.044C813.608 154.644 817.558 158.344 820.358 163.144C823.258 167.944 824.708 173.644 824.708 180.244V182.344C824.708 188.844 823.208 194.544 820.208 199.444C817.308 204.244 813.308 207.994 808.208 210.694C803.208 213.294 797.508 214.594 791.108 214.594H767.708V252.994H747.908ZM767.708 196.594H789.158C793.858 196.594 797.658 195.294 800.558 192.694C803.458 190.094 804.908 186.544 804.908 182.044V180.544C804.908 176.044 803.458 172.494 800.558 169.894C797.658 167.294 793.858 165.994 789.158 165.994H767.708V196.594ZM871.885 255.094C863.785 255.094 856.635 253.644 850.435 250.744C844.235 247.844 839.385 243.694 835.885 238.294C832.385 232.894 830.635 226.394 830.635 218.794V214.594H850.135V218.794C850.135 225.094 852.085 229.844 855.985 233.044C859.885 236.144 865.185 237.694 871.885 237.694C878.685 237.694 883.735 236.344 887.035 233.644C890.435 230.944 892.135 227.494 892.135 223.294C892.135 220.394 891.285 218.044 889.585 216.244C887.985 214.444 885.585 212.994 882.385 211.894C879.285 210.694 875.485 209.594 870.985 208.594L867.535 207.844C860.335 206.244 854.135 204.244 848.935 201.844C843.835 199.344 839.885 196.094 837.085 192.094C834.385 188.094 833.035 182.894 833.035 176.494C833.035 170.094 834.535 164.644 837.535 160.144C840.635 155.544 844.935 152.044 850.435 149.644C856.035 147.144 862.585 145.894 870.085 145.894C877.585 145.894 884.235 147.194 890.035 149.794C895.935 152.294 900.535 156.094 903.835 161.194C907.235 166.194 908.935 172.494 908.935 180.094V184.594H889.435V180.094C889.435 176.094 888.635 172.894 887.035 170.494C885.535 167.994 883.335 166.194 880.435 165.094C877.535 163.894 874.085 163.294 870.085 163.294C864.085 163.294 859.635 164.444 856.735 166.744C853.935 168.944 852.535 171.994 852.535 175.894C852.535 178.494 853.185 180.694 854.485 182.494C855.885 184.294 857.935 185.794 860.635 186.994C863.335 188.194 866.785 189.244 870.985 190.144L874.435 190.894C881.935 192.494 888.435 194.544 893.935 197.044C899.535 199.544 903.885 202.844 906.985 206.944C910.085 211.044 911.635 216.294 911.635 222.694C911.635 229.094 909.985 234.744 906.685 239.644C903.485 244.444 898.885 248.244 892.885 251.044C886.985 253.744 879.985 255.094 871.885 255.094ZM952.352 254.194C946.552 254.194 941.452 252.894 937.052 250.294C932.752 247.594 929.402 243.894 927.002 239.194C924.602 234.494 923.402 229.094 923.402 222.994V178.594H942.302V221.494C942.302 227.094 943.652 231.294 946.352 234.094C949.152 236.894 953.102 238.294 958.202 238.294C964.002 238.294 968.502 236.394 971.702 232.594C974.902 228.694 976.502 223.294 976.502 216.394V178.594H995.402V252.994H976.802V243.244H974.102C972.902 245.744 970.652 248.194 967.352 250.594C964.052 252.994 959.052 254.194 952.352 254.194ZM1048.38 255.094C1041.18 255.094 1034.63 253.594 1028.73 250.594C1022.93 247.594 1018.33 243.244 1014.93 237.544C1011.53 231.844 1009.83 224.944 1009.83 216.844V214.744C1009.83 206.644 1011.53 199.744 1014.93 194.044C1018.33 188.344 1022.93 183.994 1028.73 180.994C1034.63 177.994 1041.18 176.494 1048.38 176.494C1055.48 176.494 1061.58 177.744 1066.68 180.244C1071.78 182.744 1075.88 186.194 1078.98 190.594C1082.18 194.894 1084.28 199.794 1085.28 205.294L1066.98 209.194C1066.58 206.194 1065.68 203.494 1064.28 201.094C1062.88 198.694 1060.88 196.794 1058.28 195.394C1055.78 193.994 1052.63 193.294 1048.83 193.294C1045.03 193.294 1041.58 194.144 1038.48 195.844C1035.48 197.444 1033.08 199.894 1031.28 203.194C1029.58 206.394 1028.73 210.344 1028.73 215.044V216.544C1028.73 221.244 1029.58 225.244 1031.28 228.544C1033.08 231.744 1035.48 234.194 1038.48 235.894C1041.58 237.494 1045.03 238.294 1048.83 238.294C1054.53 238.294 1058.83 236.844 1061.73 233.944C1064.73 230.944 1066.63 227.044 1067.43 222.244L1085.73 226.594C1084.43 231.894 1082.18 236.744 1078.98 241.144C1075.88 245.444 1071.78 248.844 1066.68 251.344C1061.58 253.844 1055.48 255.094 1048.38 255.094ZM1098.32 252.994V147.994H1117.22V206.044H1119.92L1144.52 178.594H1169.12L1134.77 214.594L1170.32 252.994H1146.02L1119.92 223.444H1117.22V252.994H1098.32ZM1208.84 255.094C1199.14 255.094 1191.19 252.994 1184.99 248.794C1178.79 244.594 1175.04 238.594 1173.74 230.794L1191.14 226.294C1191.84 229.794 1192.99 232.544 1194.59 234.544C1196.29 236.544 1198.34 237.994 1200.74 238.894C1203.24 239.694 1205.94 240.094 1208.84 240.094C1213.24 240.094 1216.49 239.344 1218.59 237.844C1220.69 236.244 1221.74 234.294 1221.74 231.994C1221.74 229.694 1220.74 227.944 1218.74 226.744C1216.74 225.444 1213.54 224.394 1209.14 223.594L1204.94 222.844C1199.74 221.844 1194.99 220.494 1190.69 218.794C1186.39 216.994 1182.94 214.544 1180.34 211.444C1177.74 208.344 1176.44 204.344 1176.44 199.444C1176.44 192.044 1179.14 186.394 1184.54 182.494C1189.94 178.494 1197.04 176.494 1205.84 176.494C1214.14 176.494 1221.04 178.344 1226.54 182.044C1232.04 185.744 1235.64 190.594 1237.34 196.594L1219.79 201.994C1218.99 198.194 1217.34 195.494 1214.84 193.894C1212.44 192.294 1209.44 191.494 1205.84 191.494C1202.24 191.494 1199.49 192.144 1197.59 193.444C1195.69 194.644 1194.74 196.344 1194.74 198.544C1194.74 200.944 1195.74 202.744 1197.74 203.944C1199.74 205.044 1202.44 205.894 1205.84 206.494L1210.04 207.244C1215.64 208.244 1220.69 209.594 1225.19 211.294C1229.79 212.894 1233.39 215.244 1235.99 218.344C1238.69 221.344 1240.04 225.444 1240.04 230.644C1240.04 238.444 1237.19 244.494 1231.49 248.794C1225.89 252.994 1218.34 255.094 1208.84 255.094Z" fill="black"/>
<path d="M707.649 342.494L716.849 307.494H728.349L737.549 342.494H730.749L728.849 334.794H716.349L714.449 342.494H707.649ZM717.899 328.694H727.299L723.049 311.644H722.149L717.899 328.694ZM740.938 352.494V317.694H747.138V320.694H748.038C748.605 319.727 749.488 318.877 750.688 318.144C751.888 317.377 753.605 316.994 755.838 316.994C757.838 316.994 759.688 317.494 761.388 318.494C763.088 319.461 764.455 320.894 765.488 322.794C766.521 324.694 767.038 326.994 767.038 329.694V330.494C767.038 333.194 766.521 335.494 765.488 337.394C764.455 339.294 763.088 340.744 761.388 341.744C759.688 342.711 757.838 343.194 755.838 343.194C754.338 343.194 753.071 343.011 752.038 342.644C751.038 342.311 750.221 341.877 749.588 341.344C748.988 340.777 748.505 340.211 748.138 339.644H747.238V352.494H740.938ZM753.938 337.694C755.905 337.694 757.521 337.077 758.788 335.844C760.088 334.577 760.738 332.744 760.738 330.344V329.844C760.738 327.444 760.088 325.627 758.788 324.394C757.488 323.127 755.871 322.494 753.938 322.494C752.005 322.494 750.388 323.127 749.088 324.394C747.788 325.627 747.138 327.444 747.138 329.844V330.344C747.138 332.744 747.788 334.577 749.088 335.844C750.388 337.077 752.005 337.694 753.938 337.694ZM771.823 342.494V317.694H778.023V320.494H778.923C779.289 319.494 779.889 318.761 780.723 318.294C781.589 317.827 782.589 317.594 783.723 317.594H786.723V323.194H783.623C782.023 323.194 780.706 323.627 779.673 324.494C778.639 325.327 778.123 326.627 778.123 328.394V342.494H771.823ZM801.068 343.194C798.601 343.194 796.418 342.677 794.518 341.644C792.651 340.577 791.185 339.094 790.118 337.194C789.085 335.261 788.568 332.994 788.568 330.394V329.794C788.568 327.194 789.085 324.944 790.118 323.044C791.151 321.111 792.601 319.627 794.468 318.594C796.335 317.527 798.501 316.994 800.968 316.994C803.401 316.994 805.518 317.544 807.318 318.644C809.118 319.711 810.518 321.211 811.518 323.144C812.518 325.044 813.018 327.261 813.018 329.794V331.944H794.968C795.035 333.644 795.668 335.027 796.868 336.094C798.068 337.161 799.535 337.694 801.268 337.694C803.035 337.694 804.335 337.311 805.168 336.544C806.001 335.777 806.635 334.927 807.068 333.994L812.218 336.694C811.751 337.561 811.068 338.511 810.168 339.544C809.301 340.544 808.135 341.411 806.668 342.144C805.201 342.844 803.335 343.194 801.068 343.194ZM795.018 327.244H806.618C806.485 325.811 805.901 324.661 804.868 323.794C803.868 322.927 802.551 322.494 800.918 322.494C799.218 322.494 797.868 322.927 796.868 323.794C795.868 324.661 795.251 325.811 795.018 327.244ZM817.626 342.494V317.694H823.826V320.944H824.726C825.126 320.077 825.876 319.261 826.976 318.494C828.076 317.694 829.742 317.294 831.976 317.294C833.909 317.294 835.592 317.744 837.026 318.644C838.492 319.511 839.626 320.727 840.426 322.294C841.226 323.827 841.626 325.627 841.626 327.694V342.494H835.326V328.194C835.326 326.327 834.859 324.927 833.926 323.994C833.026 323.061 831.726 322.594 830.026 322.594C828.092 322.594 826.592 323.244 825.526 324.544C824.459 325.811 823.926 327.594 823.926 329.894V342.494H817.626ZM857.436 343.194C855.469 343.194 853.619 342.711 851.886 341.744C850.186 340.744 848.819 339.294 847.786 337.394C846.753 335.494 846.236 333.194 846.236 330.494V329.694C846.236 326.994 846.753 324.694 847.786 322.794C848.819 320.894 850.186 319.461 851.886 318.494C853.586 317.494 855.436 316.994 857.436 316.994C858.936 316.994 860.186 317.177 861.186 317.544C862.219 317.877 863.053 318.311 863.686 318.844C864.319 319.377 864.803 319.944 865.136 320.544H866.036V307.494H872.336V342.494H866.136V339.494H865.236C864.669 340.427 863.786 341.277 862.586 342.044C861.419 342.811 859.703 343.194 857.436 343.194ZM859.336 337.694C861.269 337.694 862.886 337.077 864.186 335.844C865.486 334.577 866.136 332.744 866.136 330.344V329.844C866.136 327.444 865.486 325.627 864.186 324.394C862.919 323.127 861.303 322.494 859.336 322.494C857.403 322.494 855.786 323.127 854.486 324.394C853.186 325.627 852.536 327.444 852.536 329.844V330.344C852.536 332.744 853.186 334.577 854.486 335.844C855.786 337.077 857.403 337.694 859.336 337.694ZM889.621 343.194C887.154 343.194 884.971 342.677 883.071 341.644C881.204 340.577 879.737 339.094 878.671 337.194C877.637 335.261 877.121 332.994 877.121 330.394V329.794C877.121 327.194 877.637 324.944 878.671 323.044C879.704 321.111 881.154 319.627 883.021 318.594C884.887 317.527 887.054 316.994 889.521 316.994C891.954 316.994 894.071 317.544 895.871 318.644C897.671 319.711 899.071 321.211 900.071 323.144C901.071 325.044 901.571 327.261 901.571 329.794V331.944H883.521C883.587 333.644 884.221 335.027 885.421 336.094C886.621 337.161 888.087 337.694 889.821 337.694C891.587 337.694 892.887 337.311 893.721 336.544C894.554 335.777 895.187 334.927 895.621 333.994L900.771 336.694C900.304 337.561 899.621 338.511 898.721 339.544C897.854 340.544 896.687 341.411 895.221 342.144C893.754 342.844 891.887 343.194 889.621 343.194ZM883.571 327.244H895.171C895.037 325.811 894.454 324.661 893.421 323.794C892.421 322.927 891.104 322.494 889.471 322.494C887.771 322.494 886.421 322.927 885.421 323.794C884.421 324.661 883.804 325.811 883.571 327.244ZM925.574 343.194C923.807 343.194 922.224 342.894 920.824 342.294C919.424 341.661 918.307 340.761 917.474 339.594C916.674 338.394 916.274 336.944 916.274 335.244C916.274 333.544 916.674 332.127 917.474 330.994C918.307 329.827 919.44 328.961 920.874 328.394C922.34 327.794 924.007 327.494 925.874 327.494H932.674V326.094C932.674 324.927 932.307 323.977 931.574 323.244C930.84 322.477 929.674 322.094 928.074 322.094C926.507 322.094 925.34 322.461 924.574 323.194C923.807 323.894 923.307 324.811 923.074 325.944L917.274 323.994C917.674 322.727 918.307 321.577 919.174 320.544C920.074 319.477 921.257 318.627 922.724 317.994C924.224 317.327 926.04 316.994 928.174 316.994C931.44 316.994 934.024 317.811 935.924 319.444C937.824 321.077 938.774 323.444 938.774 326.544V335.794C938.774 336.794 939.24 337.294 940.174 337.294H942.174V342.494H937.974C936.74 342.494 935.724 342.194 934.924 341.594C934.124 340.994 933.724 340.194 933.724 339.194V339.144H932.774C932.64 339.544 932.34 340.077 931.874 340.744C931.407 341.377 930.674 341.944 929.674 342.444C928.674 342.944 927.307 343.194 925.574 343.194ZM926.674 338.094C928.44 338.094 929.874 337.611 930.974 336.644C932.107 335.644 932.674 334.327 932.674 332.694V332.194H926.324C925.157 332.194 924.24 332.444 923.574 332.944C922.907 333.444 922.574 334.144 922.574 335.044C922.574 335.944 922.924 336.677 923.624 337.244C924.324 337.811 925.34 338.094 926.674 338.094ZM957.475 352.494V317.694H963.675V320.694H964.575C965.142 319.727 966.025 318.877 967.225 318.144C968.425 317.377 970.142 316.994 972.375 316.994C974.375 316.994 976.225 317.494 977.925 318.494C979.625 319.461 980.992 320.894 982.025 322.794C983.058 324.694 983.575 326.994 983.575 329.694V330.494C983.575 333.194 983.058 335.494 982.025 337.394C980.992 339.294 979.625 340.744 977.925 341.744C976.225 342.711 974.375 343.194 972.375 343.194C970.875 343.194 969.608 343.011 968.575 342.644C967.575 342.311 966.758 341.877 966.125 341.344C965.525 340.777 965.042 340.211 964.675 339.644H963.775V352.494H957.475ZM970.475 337.694C972.442 337.694 974.058 337.077 975.325 335.844C976.625 334.577 977.275 332.744 977.275 330.344V329.844C977.275 327.444 976.625 325.627 975.325 324.394C974.025 323.127 972.408 322.494 970.475 322.494C968.542 322.494 966.925 323.127 965.625 324.394C964.325 325.627 963.675 327.444 963.675 329.844V330.344C963.675 332.744 964.325 334.577 965.625 335.844C966.925 337.077 968.542 337.694 970.475 337.694ZM988.36 342.494V317.694H994.56V320.494H995.46C995.827 319.494 996.427 318.761 997.26 318.294C998.127 317.827 999.127 317.594 1000.26 317.594H1003.26V323.194H1000.16C998.56 323.194 997.243 323.627 996.21 324.494C995.177 325.327 994.66 326.627 994.66 328.394V342.494H988.36ZM1018.11 343.194C1015.64 343.194 1013.42 342.694 1011.46 341.694C1009.49 340.694 1007.94 339.244 1006.81 337.344C1005.67 335.444 1005.11 333.161 1005.11 330.494V329.694C1005.11 327.027 1005.67 324.744 1006.81 322.844C1007.94 320.944 1009.49 319.494 1011.46 318.494C1013.42 317.494 1015.64 316.994 1018.11 316.994C1020.57 316.994 1022.79 317.494 1024.76 318.494C1026.72 319.494 1028.27 320.944 1029.41 322.844C1030.54 324.744 1031.11 327.027 1031.11 329.694V330.494C1031.11 333.161 1030.54 335.444 1029.41 337.344C1028.27 339.244 1026.72 340.694 1024.76 341.694C1022.79 342.694 1020.57 343.194 1018.11 343.194ZM1018.11 337.594C1020.04 337.594 1021.64 336.977 1022.91 335.744C1024.17 334.477 1024.81 332.677 1024.81 330.344V329.844C1024.81 327.511 1024.17 325.727 1022.91 324.494C1021.67 323.227 1020.07 322.594 1018.11 322.594C1016.17 322.594 1014.57 323.227 1013.31 324.494C1012.04 325.727 1011.41 327.511 1011.41 329.844V330.344C1011.41 332.677 1012.04 334.477 1013.31 335.744C1014.57 336.977 1016.17 337.594 1018.11 337.594ZM1034.72 330.194V329.394C1034.72 326.794 1035.24 324.577 1036.27 322.744C1037.3 320.877 1038.67 319.461 1040.37 318.494C1042.1 317.494 1043.99 316.994 1046.02 316.994C1048.29 316.994 1050 317.394 1051.17 318.194C1052.34 318.994 1053.19 319.827 1053.72 320.694H1054.62V317.694H1060.82V346.894C1060.82 348.594 1060.32 349.944 1059.32 350.944C1058.32 351.977 1056.99 352.494 1055.32 352.494H1038.72V346.994H1053.12C1054.05 346.994 1054.52 346.494 1054.52 345.494V339.044H1053.62C1053.29 339.577 1052.82 340.127 1052.22 340.694C1051.62 341.227 1050.82 341.677 1049.82 342.044C1048.82 342.411 1047.55 342.594 1046.02 342.594C1043.99 342.594 1042.1 342.111 1040.37 341.144C1038.67 340.144 1037.3 338.727 1036.27 336.894C1035.24 335.027 1034.72 332.794 1034.72 330.194ZM1047.82 337.094C1049.75 337.094 1051.37 336.477 1052.67 335.244C1053.97 334.011 1054.62 332.277 1054.62 330.044V329.544C1054.62 327.277 1053.97 325.544 1052.67 324.344C1051.4 323.111 1049.79 322.494 1047.82 322.494C1045.89 322.494 1044.27 323.111 1042.97 324.344C1041.67 325.544 1041.02 327.277 1041.02 329.544V330.044C1041.02 332.277 1041.67 334.011 1042.97 335.244C1044.27 336.477 1045.89 337.094 1047.82 337.094ZM1066.81 342.494V317.694H1073.01V320.494H1073.91C1074.27 319.494 1074.87 318.761 1075.71 318.294C1076.57 317.827 1077.57 317.594 1078.71 317.594H1081.71V323.194H1078.61C1077.01 323.194 1075.69 323.627 1074.66 324.494C1073.62 325.327 1073.11 326.627 1073.11 328.394V342.494H1066.81ZM1092.74 343.194C1090.98 343.194 1089.39 342.894 1087.99 342.294C1086.59 341.661 1085.48 340.761 1084.64 339.594C1083.84 338.394 1083.44 336.944 1083.44 335.244C1083.44 333.544 1083.84 332.127 1084.64 330.994C1085.48 329.827 1086.61 328.961 1088.04 328.394C1089.51 327.794 1091.18 327.494 1093.04 327.494H1099.84V326.094C1099.84 324.927 1099.48 323.977 1098.74 323.244C1098.01 322.477 1096.84 322.094 1095.24 322.094C1093.68 322.094 1092.51 322.461 1091.74 323.194C1090.98 323.894 1090.48 324.811 1090.24 325.944L1084.44 323.994C1084.84 322.727 1085.48 321.577 1086.34 320.544C1087.24 319.477 1088.43 318.627 1089.89 317.994C1091.39 317.327 1093.21 316.994 1095.34 316.994C1098.61 316.994 1101.19 317.811 1103.09 319.444C1104.99 321.077 1105.94 323.444 1105.94 326.544V335.794C1105.94 336.794 1106.41 337.294 1107.34 337.294H1109.34V342.494H1105.14C1103.91 342.494 1102.89 342.194 1102.09 341.594C1101.29 340.994 1100.89 340.194 1100.89 339.194V339.144H1099.94C1099.81 339.544 1099.51 340.077 1099.04 340.744C1098.58 341.377 1097.84 341.944 1096.84 342.444C1095.84 342.944 1094.48 343.194 1092.74 343.194ZM1093.84 338.094C1095.61 338.094 1097.04 337.611 1098.14 336.644C1099.28 335.644 1099.84 334.327 1099.84 332.694V332.194H1093.49C1092.33 332.194 1091.41 332.444 1090.74 332.944C1090.08 333.444 1089.74 334.144 1089.74 335.044C1089.74 335.944 1090.09 336.677 1090.79 337.244C1091.49 337.811 1092.51 338.094 1093.84 338.094ZM1112.95 342.494V317.694H1119.15V320.394H1120.05C1120.48 319.561 1121.2 318.844 1122.2 318.244C1123.2 317.611 1124.52 317.294 1126.15 317.294C1127.92 317.294 1129.33 317.644 1130.4 318.344C1131.47 319.011 1132.28 319.894 1132.85 320.994H1133.75C1134.32 319.927 1135.12 319.044 1136.15 318.344C1137.18 317.644 1138.65 317.294 1140.55 317.294C1142.08 317.294 1143.47 317.627 1144.7 318.294C1145.97 318.927 1146.97 319.911 1147.7 321.244C1148.47 322.544 1148.85 324.194 1148.85 326.194V342.494H1142.55V326.644C1142.55 325.277 1142.2 324.261 1141.5 323.594C1140.8 322.894 1139.82 322.544 1138.55 322.544C1137.12 322.544 1136 323.011 1135.2 323.944C1134.43 324.844 1134.05 326.144 1134.05 327.844V342.494H1127.75V326.644C1127.75 325.277 1127.4 324.261 1126.7 323.594C1126 322.894 1125.02 322.544 1123.75 322.544C1122.32 322.544 1121.2 323.011 1120.4 323.944C1119.63 324.844 1119.25 326.144 1119.25 327.844V342.494H1112.95ZM1162.33 343.194C1160.56 343.194 1158.98 342.894 1157.58 342.294C1156.18 341.661 1155.06 340.761 1154.23 339.594C1153.43 338.394 1153.03 336.944 1153.03 335.244C1153.03 333.544 1153.43 332.127 1154.23 330.994C1155.06 329.827 1156.19 328.961 1157.63 328.394C1159.09 327.794 1160.76 327.494 1162.63 327.494H1169.43V326.094C1169.43 324.927 1169.06 323.977 1168.33 323.244C1167.59 322.477 1166.43 322.094 1164.83 322.094C1163.26 322.094 1162.09 322.461 1161.33 323.194C1160.56 323.894 1160.06 324.811 1159.83 325.944L1154.03 323.994C1154.43 322.727 1155.06 321.577 1155.93 320.544C1156.83 319.477 1158.01 318.627 1159.48 317.994C1160.98 317.327 1162.79 316.994 1164.93 316.994C1168.19 316.994 1170.78 317.811 1172.68 319.444C1174.58 321.077 1175.53 323.444 1175.53 326.544V335.794C1175.53 336.794 1175.99 337.294 1176.93 337.294H1178.93V342.494H1174.73C1173.49 342.494 1172.48 342.194 1171.68 341.594C1170.88 340.994 1170.48 340.194 1170.48 339.194V339.144H1169.53C1169.39 339.544 1169.09 340.077 1168.63 340.744C1168.16 341.377 1167.43 341.944 1166.43 342.444C1165.43 342.944 1164.06 343.194 1162.33 343.194ZM1163.43 338.094C1165.19 338.094 1166.63 337.611 1167.73 336.644C1168.86 335.644 1169.43 334.327 1169.43 332.694V332.194H1163.08C1161.91 332.194 1160.99 332.444 1160.33 332.944C1159.66 333.444 1159.33 334.144 1159.33 335.044C1159.33 335.944 1159.68 336.677 1160.38 337.244C1161.08 337.811 1162.09 338.094 1163.43 338.094ZM1182.53 342.494V317.694H1188.73V320.494H1189.63C1190 319.494 1190.6 318.761 1191.43 318.294C1192.3 317.827 1193.3 317.594 1194.43 317.594H1197.43V323.194H1194.33C1192.73 323.194 1191.42 323.627 1190.38 324.494C1189.35 325.327 1188.83 326.627 1188.83 328.394V342.494H1182.53Z" fill="black"/>
<rect x="609.96" y="425.621" width="700.592" height="102.345" transform="rotate(-5 609.96 425.621)" fill="black" stroke="black" stroke-width="5"/>
<rect x="602.597" y="420.816" width="695.976" height="97.1106" transform="rotate(-5 602.597 420.816)" fill="#2B50AA" stroke="black" stroke-width="5"/>
<path d="M726.18 474.598L724.018 449.892L730.195 449.352L730.43 452.041L731.326 451.963C731.685 451.095 732.337 450.319 733.281 449.634C734.222 448.916 735.506 448.486 737.133 448.343C738.893 448.189 740.335 448.414 741.458 449.019C742.579 449.59 743.47 450.399 744.13 451.445L745.027 451.367C745.498 450.255 746.218 449.305 747.186 448.518C748.155 447.73 749.585 447.254 751.478 447.088C753.006 446.955 754.413 447.166 755.7 447.723C757.017 448.243 758.099 449.136 758.945 450.4C759.822 451.628 760.348 453.239 760.522 455.231L761.943 471.469L755.667 472.018L754.286 456.228C754.166 454.867 753.729 453.885 752.974 453.281C752.215 452.645 751.205 452.382 749.943 452.492C748.516 452.617 747.444 453.18 746.728 454.179C746.043 455.143 745.774 456.471 745.922 458.165L747.199 472.759L740.923 473.308L739.542 457.518C739.423 456.157 738.985 455.174 738.23 454.571C737.472 453.935 736.462 453.672 735.2 453.782C733.772 453.907 732.7 454.47 731.984 455.469C731.299 456.432 731.031 457.761 731.179 459.454L732.456 474.049L726.18 474.598ZM779.015 470.678C776.557 470.893 774.337 470.569 772.355 469.705C770.402 468.805 768.812 467.455 767.584 465.655C766.386 463.819 765.673 461.606 765.447 459.016L765.394 458.418C765.168 455.828 765.486 453.542 766.35 451.559C767.211 449.543 768.526 447.939 770.296 446.747C772.062 445.521 774.174 444.801 776.632 444.586C779.056 444.374 781.212 444.738 783.101 445.677C784.987 446.582 786.513 447.955 787.678 449.793C788.839 451.599 789.531 453.764 789.751 456.287L789.939 458.429L771.957 460.002C772.172 461.69 772.924 463.013 774.212 463.971C775.5 464.929 777.008 465.333 778.735 465.181C780.495 465.027 781.756 464.532 782.52 463.696C783.283 462.86 783.84 461.958 784.19 460.99L789.556 463.231C789.166 464.135 788.569 465.141 787.762 466.249C786.986 467.32 785.899 468.286 784.502 469.144C783.102 469.969 781.273 470.48 779.015 470.678ZM771.598 455.316L783.154 454.305C782.896 452.889 782.214 451.794 781.109 451.021C780.038 450.244 778.688 449.927 777.061 450.07C775.368 450.218 774.061 450.767 773.14 451.718C772.219 452.668 771.705 453.868 771.598 455.316ZM791.737 478.9L791.267 473.521L794.554 473.233C795.484 473.152 795.905 472.613 795.818 471.617L793.386 443.823L799.662 443.274L802.207 472.363C802.355 474.057 801.975 475.445 801.066 476.528C800.16 477.645 798.877 478.276 797.216 478.421L791.737 478.9ZM796.272 440.66C795.143 440.758 794.148 440.477 793.287 439.817C792.459 439.153 791.993 438.223 791.888 437.028C791.784 435.832 792.081 434.836 792.781 434.039C793.514 433.238 794.445 432.789 795.574 432.69C796.737 432.588 797.732 432.869 798.559 433.533C799.387 434.197 799.853 435.126 799.958 436.322C800.062 437.517 799.765 438.514 799.065 439.311C798.365 440.108 797.434 440.558 796.272 440.66ZM819.596 467.128C817.139 467.343 814.887 467.038 812.841 466.213C810.794 465.388 809.124 464.079 807.829 462.285C806.535 460.491 805.771 458.265 805.539 455.609L805.469 454.812C805.237 452.155 805.602 449.831 806.565 447.84C807.529 445.848 808.947 444.269 810.819 443.101C812.691 441.934 814.855 441.242 817.313 441.027C819.77 440.812 822.022 441.117 824.068 441.942C826.114 442.767 827.785 444.076 829.079 445.87C830.374 447.664 831.138 449.889 831.37 452.546L831.44 453.343C831.672 455.999 831.307 458.323 830.343 460.315C829.38 462.306 827.962 463.886 826.09 465.054C824.218 466.221 822.053 466.913 819.596 467.128ZM819.108 461.549C821.034 461.38 822.574 460.627 823.729 459.288C824.88 457.915 825.354 456.067 825.151 453.743L825.107 453.244C824.904 450.92 824.117 449.199 822.748 448.08C821.409 446.926 819.76 446.435 817.801 446.606C815.875 446.774 814.336 447.545 813.185 448.917C812.03 450.256 811.555 452.088 811.758 454.412L811.802 454.91C812.005 457.235 812.793 458.973 814.165 460.124C815.534 461.242 817.182 461.717 819.108 461.549ZM837.283 464.878L835.121 440.172L841.297 439.632L841.541 442.421L842.438 442.342C842.716 441.314 843.25 440.531 844.039 439.994C844.862 439.453 845.838 439.134 846.967 439.035L849.956 438.774L850.444 444.352L847.356 444.623C845.762 444.762 844.488 445.308 843.534 446.262C842.577 447.182 842.176 448.522 842.33 450.282L843.559 464.328L837.283 464.878ZM887.087 470.558L885.967 457.757L885.07 457.836C884.787 458.429 884.355 459.036 883.774 459.656C883.189 460.242 882.397 460.746 881.397 461.169C880.432 461.621 879.203 461.913 877.709 462.043C875.716 462.218 873.831 461.897 872.054 461.083C870.273 460.235 868.785 458.909 867.59 457.106C866.395 455.304 865.68 453.058 865.445 450.368L865.375 449.571C865.14 446.881 865.454 444.545 866.318 442.562C867.181 440.579 868.418 439.032 870.027 437.921C871.667 436.774 873.466 436.114 875.425 435.943C877.683 435.745 879.427 435.978 880.656 436.64C881.915 437.266 882.869 438.036 883.518 438.949L884.415 438.871L884.153 435.882L890.33 435.342L893.363 470.009L887.087 470.558ZM879.122 456.399C881.081 456.227 882.638 455.472 883.793 454.133C884.977 452.758 885.465 450.875 885.256 448.484L885.212 447.986C885.003 445.595 884.197 443.842 882.795 442.727C881.389 441.578 879.723 441.088 877.798 441.257C875.872 441.425 874.316 442.197 873.132 443.572C871.944 444.914 871.455 446.78 871.664 449.171L871.708 449.669C871.917 452.06 872.724 453.83 874.129 454.978C875.532 456.094 877.196 456.567 879.122 456.399ZM907.902 459.101C905.976 459.269 904.245 458.986 902.708 458.25C901.202 457.478 899.982 456.347 899.048 454.856C898.115 453.365 897.56 451.607 897.382 449.581L896.092 434.838L902.368 434.288L903.615 448.534C903.777 450.394 904.348 451.749 905.326 452.6C906.337 453.449 907.689 453.799 909.383 453.651C911.309 453.482 912.748 452.721 913.7 451.366C914.649 449.978 915.024 448.138 914.823 445.847L913.725 433.295L920.001 432.746L922.163 457.451L915.986 457.992L915.703 454.754L914.806 454.833C914.48 455.698 913.805 456.577 912.778 457.469C911.752 458.362 910.127 458.906 907.902 459.101ZM939.468 456.64C937.011 456.855 934.791 456.531 932.808 455.667C930.856 454.767 929.265 453.417 928.037 451.617C926.839 449.781 926.127 447.568 925.9 444.978L925.848 444.381C925.621 441.79 925.94 439.504 926.804 437.521C927.665 435.505 928.98 433.901 930.749 432.709C932.516 431.484 934.628 430.763 937.085 430.549C939.509 430.336 941.666 430.7 943.555 431.639C945.441 432.545 946.966 433.917 948.131 435.756C949.293 437.561 949.984 439.726 950.205 442.25L950.392 444.391L932.411 445.965C932.626 447.652 933.377 448.975 934.665 449.933C935.954 450.891 937.461 451.295 939.188 451.144C940.948 450.99 942.21 450.494 942.973 449.658C943.736 448.822 944.293 447.92 944.644 446.952L950.009 449.193C949.62 450.097 949.022 451.103 948.216 452.211C947.439 453.283 946.353 454.248 944.955 455.106C943.555 455.931 941.726 456.443 939.468 456.64ZM932.051 441.278L943.607 440.267C943.349 438.851 942.668 437.756 941.563 436.983C940.491 436.207 939.142 435.89 937.515 436.032C935.821 436.18 934.514 436.729 933.593 437.68C932.673 438.63 932.159 439.83 932.051 441.278ZM978.87 453.193C976.413 453.408 974.193 453.083 972.21 452.22C970.258 451.32 968.667 449.97 967.439 448.17C966.241 446.334 965.529 444.121 965.302 441.531L965.25 440.933C965.024 438.343 965.342 436.057 966.206 434.074C967.067 432.058 968.382 430.454 970.152 429.262C971.918 428.036 974.03 427.316 976.487 427.101C978.911 426.889 981.068 427.253 982.957 428.192C984.843 429.097 986.369 430.47 987.533 432.308C988.695 434.114 989.386 436.279 989.607 438.802L989.795 440.944L971.813 442.517C972.028 444.205 972.779 445.528 974.068 446.486C975.356 447.444 976.864 447.847 978.59 447.696C980.35 447.542 981.612 447.047 982.375 446.211C983.139 445.374 983.695 444.472 984.046 443.505L989.412 445.746C989.022 446.65 988.424 447.656 987.618 448.764C986.842 449.835 985.755 450.8 984.358 451.659C982.958 452.484 981.129 452.995 978.87 453.193ZM971.453 437.831L983.009 436.82C982.751 435.404 982.07 434.309 980.965 433.535C979.893 432.759 978.544 432.442 976.917 432.585C975.223 432.733 973.916 433.282 972.996 434.233C972.075 435.183 971.561 436.383 971.453 437.831ZM995.304 451.052L993.142 426.347L999.319 425.806L999.602 429.044L1000.5 428.966C1000.82 428.067 1001.5 427.188 1002.53 426.329C1003.55 425.436 1005.18 424.892 1007.4 424.698C1009.33 424.529 1011.05 424.831 1012.55 425.602C1014.09 426.338 1015.32 427.451 1016.26 428.942C1017.19 430.4 1017.74 432.158 1017.92 434.217L1019.21 448.961L1012.94 449.51L1011.69 435.264C1011.53 433.405 1010.94 432.051 1009.93 431.202C1008.95 430.351 1007.62 429.999 1005.92 430.147C1004 430.316 1002.56 431.094 1001.61 432.482C1000.66 433.837 1000.28 435.66 1000.48 437.951L1001.58 450.503L995.304 451.052ZM1046.1 447.01C1044.17 447.178 1042.44 446.895 1040.91 446.159C1039.4 445.388 1038.18 444.256 1037.25 442.765C1036.31 441.274 1035.76 439.516 1035.58 437.49L1034.29 422.747L1040.57 422.198L1041.81 436.443C1041.98 438.303 1042.55 439.658 1043.52 440.51C1044.54 441.358 1045.89 441.708 1047.58 441.56C1049.51 441.392 1050.95 440.63 1051.9 439.275C1052.85 437.887 1053.22 436.047 1053.02 433.756L1051.92 421.204L1058.2 420.655L1060.36 445.361L1054.18 445.901L1053.9 442.663L1053 442.742C1052.68 443.607 1052 444.486 1050.98 445.379C1049.95 446.271 1048.33 446.815 1046.1 447.01ZM1066.35 444.837L1064.19 420.131L1070.36 419.591L1070.65 422.828L1071.54 422.75C1071.87 421.852 1072.54 420.973 1073.57 420.113C1074.6 419.22 1076.22 418.677 1078.45 418.482C1080.37 418.314 1082.09 418.615 1083.6 419.387C1085.13 420.122 1086.37 421.236 1087.3 422.727C1088.23 424.184 1088.79 425.943 1088.97 428.001L1090.26 442.745L1083.98 443.294L1082.74 429.049C1082.57 427.189 1081.99 425.835 1080.97 424.987C1080 424.135 1078.66 423.784 1076.97 423.932C1075.04 424.1 1073.6 424.879 1072.65 426.267C1071.7 427.621 1071.33 429.444 1071.53 431.736L1072.62 444.288L1066.35 444.837ZM1103.78 442.265C1102.02 442.419 1100.41 442.258 1098.97 441.782C1097.52 441.273 1096.33 440.474 1095.39 439.385C1094.49 438.259 1093.97 436.849 1093.82 435.156C1093.67 433.462 1093.95 432.016 1094.65 430.817C1095.37 429.582 1096.43 428.62 1097.81 427.931C1099.21 427.205 1100.85 426.761 1102.71 426.598L1109.48 426.006L1109.36 424.611C1109.26 423.449 1108.81 422.534 1108.02 421.868C1107.22 421.168 1106.02 420.888 1104.43 421.027C1102.87 421.164 1101.74 421.631 1101.04 422.428C1100.34 423.192 1099.92 424.149 1099.78 425.298L1093.84 423.861C1094.12 422.565 1094.65 421.364 1095.43 420.259C1096.23 419.118 1097.34 418.168 1098.74 417.409C1100.18 416.614 1101.96 416.124 1104.08 415.938C1107.34 415.653 1109.98 416.242 1112.02 417.703C1114.05 419.165 1115.21 421.44 1115.48 424.528L1116.28 433.743C1116.37 434.739 1116.88 435.196 1117.81 435.115L1119.8 434.941L1120.25 440.121L1116.07 440.487C1114.84 440.594 1113.8 440.384 1112.95 439.856C1112.1 439.328 1111.64 438.566 1111.55 437.57L1111.54 437.52L1110.6 437.603C1110.5 438.013 1110.25 438.57 1109.84 439.275C1109.43 439.947 1108.75 440.575 1107.8 441.16C1106.84 441.746 1105.5 442.114 1103.78 442.265ZM1104.43 437.088C1106.19 436.934 1107.57 436.328 1108.59 435.269C1109.63 434.174 1110.08 432.813 1109.94 431.186L1109.89 430.688L1103.57 431.241C1102.4 431.343 1101.51 431.672 1100.89 432.228C1100.27 432.784 1100 433.511 1100.08 434.407C1100.16 435.304 1100.57 436.004 1101.32 436.507C1102.06 437.011 1103.1 437.205 1104.43 437.088ZM1135.3 438.805L1132.25 403.938L1154.16 402.02L1154.69 407.997L1139.35 409.34L1140.08 417.758L1154.23 416.52L1154.75 422.497L1140.6 423.735L1141.87 438.229L1135.3 438.805ZM1160.91 436.564L1157.86 401.697L1172.2 400.442C1174.4 400.25 1176.36 400.53 1178.1 401.281C1179.87 401.997 1181.29 403.11 1182.36 404.623C1183.46 406.133 1184.11 407.983 1184.3 410.175L1184.36 410.872C1184.55 413.031 1184.22 414.967 1183.36 416.681C1182.54 418.36 1181.32 419.721 1179.7 420.766C1178.12 421.774 1176.26 422.372 1174.14 422.558L1166.37 423.237L1167.48 435.989L1160.91 436.564ZM1165.85 417.26L1172.97 416.637C1174.53 416.5 1175.75 415.958 1176.64 415.011C1177.53 414.063 1177.91 412.842 1177.78 411.348L1177.73 410.85C1177.6 409.356 1177.02 408.219 1175.98 407.44C1174.94 406.661 1173.64 406.339 1172.08 406.476L1164.96 407.099L1165.85 417.26Z" fill="white"/>
<defs>
<clipPath id="clip0_2006_114">
<rect width="419.481" height="409.822" fill="white" transform="translate(93.8315 52.4351)"/>
</clipPath>
</defs>
</svg>
