<svg width="1264" height="478" viewBox="0 0 1264 478" fill="none" xmlns="http://www.w3.org/2000/svg">
<g clip-path="url(#clip0_2006_145)">
<path d="M413.714 16.5156H19.2244C16.0392 16.5156 13.457 19.0951 13.457 22.277V404.061C13.457 407.243 16.0392 409.822 19.2244 409.822H413.714C416.899 409.822 419.481 407.243 419.481 404.061V22.277C419.481 19.0951 416.899 16.5156 413.714 16.5156Z" fill="black"/>
<mask id="mask0_2006_145" style="mask-type:luminance" maskUnits="userSpaceOnUse" x="0" y="0" width="394" height="394">
<path d="M387.953 0H5.76739C2.58215 0 0 2.57943 0 5.76133V387.545C0 390.727 2.58215 393.306 5.76739 393.306H387.953C391.138 393.306 393.72 390.727 393.72 387.545V5.76133C393.72 2.57943 391.138 0 387.953 0Z" fill="white"/>
</mask>
<g mask="url(#mask0_2006_145)">
<path d="M387.953 0H5.76739C2.58215 0 0 2.57943 0 5.76133V387.545C0 390.727 2.58215 393.306 5.76739 393.306H387.953C391.138 393.306 393.72 390.727 393.72 387.545V5.76133C393.72 2.57943 391.138 0 387.953 0Z" fill="#FFCB05" stroke="black" stroke-width="40"/>
</g>
<path d="M54.5459 296.132V94.4858H181.428V129.054H92.6107V177.737H174.508V212.305H92.6107V296.132H54.5459ZM202.82 296.132V94.4858H285.87C298.558 94.4858 309.709 97.0784 319.321 102.264C329.126 107.257 336.719 114.362 342.102 123.581C347.677 132.799 350.465 143.745 350.465 156.42V160.453C350.465 172.936 347.581 183.882 341.814 193.293C336.239 202.511 328.549 209.712 318.744 214.898C309.132 219.891 298.174 222.387 285.87 222.387H240.884V296.132H202.82ZM240.884 187.819H282.121C291.157 187.819 298.462 185.323 304.037 180.33C309.613 175.336 312.4 168.519 312.4 159.877V156.996C312.4 148.354 309.613 141.537 304.037 136.544C298.462 131.55 291.157 129.054 282.121 129.054H240.884V187.819Z" fill="black"/>
</g>
<path d="M576.949 200.559V95.5586H642.949V113.559H596.749V138.909H639.349V156.909H596.749V200.559H576.949ZM654.076 200.559V95.5586H697.276C703.876 95.5586 709.676 96.9086 714.676 99.6086C719.776 102.209 723.726 105.909 726.526 110.709C729.426 115.509 730.876 121.209 730.876 127.809V129.909C730.876 136.409 729.376 142.109 726.376 147.009C723.476 151.809 719.476 155.559 714.376 158.259C709.376 160.859 703.676 162.159 697.276 162.159H673.876V200.559H654.076ZM673.876 144.159H695.326C700.026 144.159 703.826 142.859 706.726 140.259C709.626 137.659 711.076 134.109 711.076 129.609V128.109C711.076 123.609 709.626 120.059 706.726 117.459C703.826 114.859 700.026 113.559 695.326 113.559H673.876V144.159ZM778.054 202.659C769.954 202.659 762.804 201.209 756.604 198.309C750.404 195.409 745.554 191.259 742.054 185.859C738.554 180.459 736.804 173.959 736.804 166.359V162.159H756.304V166.359C756.304 172.659 758.254 177.409 762.154 180.609C766.054 183.709 771.354 185.259 778.054 185.259C784.854 185.259 789.904 183.909 793.204 181.209C796.604 178.509 798.304 175.059 798.304 170.859C798.304 167.959 797.454 165.609 795.754 163.809C794.154 162.009 791.754 160.559 788.554 159.459C785.454 158.259 781.654 157.159 777.154 156.159L773.704 155.409C766.504 153.809 760.304 151.809 755.104 149.409C750.004 146.909 746.054 143.659 743.254 139.659C740.554 135.659 739.204 130.459 739.204 124.059C739.204 117.659 740.704 112.209 743.704 107.709C746.804 103.109 751.104 99.6086 756.604 97.2086C762.204 94.7086 768.754 93.4586 776.254 93.4586C783.754 93.4586 790.404 94.7586 796.204 97.3586C802.104 99.8586 806.704 103.659 810.004 108.759C813.404 113.759 815.104 120.059 815.104 127.659V132.159H795.604V127.659C795.604 123.659 794.804 120.459 793.204 118.059C791.704 115.559 789.504 113.759 786.604 112.659C783.704 111.459 780.254 110.859 776.254 110.859C770.254 110.859 765.804 112.009 762.904 114.309C760.104 116.509 758.704 119.559 758.704 123.459C758.704 126.059 759.354 128.259 760.654 130.059C762.054 131.859 764.104 133.359 766.804 134.559C769.504 135.759 772.954 136.809 777.154 137.709L780.604 138.459C788.104 140.059 794.604 142.109 800.104 144.609C805.704 147.109 810.054 150.409 813.154 154.509C816.254 158.609 817.804 163.859 817.804 170.259C817.804 176.659 816.154 182.309 812.854 187.209C809.654 192.009 805.054 195.809 799.054 198.609C793.154 201.309 786.154 202.659 778.054 202.659ZM858.52 201.759C852.72 201.759 847.62 200.459 843.22 197.859C838.92 195.159 835.57 191.459 833.17 186.759C830.77 182.059 829.57 176.659 829.57 170.559V126.159H848.47V169.059C848.47 174.659 849.82 178.859 852.52 181.659C855.32 184.459 859.27 185.859 864.37 185.859C870.17 185.859 874.67 183.959 877.87 180.159C881.07 176.259 882.67 170.859 882.67 163.959V126.159H901.57V200.559H882.97V190.809H880.27C879.07 193.309 876.82 195.759 873.52 198.159C870.22 200.559 865.22 201.759 858.52 201.759ZM954.552 202.659C947.352 202.659 940.802 201.159 934.902 198.159C929.102 195.159 924.502 190.809 921.102 185.109C917.702 179.409 916.002 172.509 916.002 164.409V162.309C916.002 154.209 917.702 147.309 921.102 141.609C924.502 135.909 929.102 131.559 934.902 128.559C940.802 125.559 947.352 124.059 954.552 124.059C961.652 124.059 967.752 125.309 972.852 127.809C977.952 130.309 982.052 133.759 985.152 138.159C988.352 142.459 990.452 147.359 991.452 152.859L973.152 156.759C972.752 153.759 971.852 151.059 970.452 148.659C969.052 146.259 967.052 144.359 964.452 142.959C961.952 141.559 958.802 140.859 955.002 140.859C951.202 140.859 947.752 141.709 944.652 143.409C941.652 145.009 939.252 147.459 937.452 150.759C935.752 153.959 934.902 157.909 934.902 162.609V164.109C934.902 168.809 935.752 172.809 937.452 176.109C939.252 179.309 941.652 181.759 944.652 183.459C947.752 185.059 951.202 185.859 955.002 185.859C960.702 185.859 965.002 184.409 967.902 181.509C970.902 178.509 972.802 174.609 973.602 169.809L991.902 174.159C990.602 179.459 988.352 184.309 985.152 188.709C982.052 193.009 977.952 196.409 972.852 198.909C967.752 201.409 961.652 202.659 954.552 202.659ZM1004.49 200.559V95.5586H1023.39V153.609H1026.09L1050.69 126.159H1075.29L1040.94 162.159L1076.49 200.559H1052.19L1026.09 171.009H1023.39V200.559H1004.49ZM1115.01 202.659C1105.31 202.659 1097.36 200.559 1091.16 196.359C1084.96 192.159 1081.21 186.159 1079.91 178.359L1097.31 173.859C1098.01 177.359 1099.16 180.109 1100.76 182.109C1102.46 184.109 1104.51 185.559 1106.91 186.459C1109.41 187.259 1112.11 187.659 1115.01 187.659C1119.41 187.659 1122.66 186.909 1124.76 185.409C1126.86 183.809 1127.91 181.859 1127.91 179.559C1127.91 177.259 1126.91 175.509 1124.91 174.309C1122.91 173.009 1119.71 171.959 1115.31 171.159L1111.11 170.409C1105.91 169.409 1101.16 168.059 1096.86 166.359C1092.56 164.559 1089.11 162.109 1086.51 159.009C1083.91 155.909 1082.61 151.909 1082.61 147.009C1082.61 139.609 1085.31 133.959 1090.71 130.059C1096.11 126.059 1103.21 124.059 1112.01 124.059C1120.31 124.059 1127.21 125.909 1132.71 129.609C1138.21 133.309 1141.81 138.159 1143.51 144.159L1125.96 149.559C1125.16 145.759 1123.51 143.059 1121.01 141.459C1118.61 139.859 1115.61 139.059 1112.01 139.059C1108.41 139.059 1105.66 139.709 1103.76 141.009C1101.86 142.209 1100.91 143.909 1100.91 146.109C1100.91 148.509 1101.91 150.309 1103.91 151.509C1105.91 152.609 1108.61 153.459 1112.01 154.059L1116.21 154.809C1121.81 155.809 1126.86 157.159 1131.36 158.859C1135.96 160.459 1139.56 162.809 1142.16 165.909C1144.86 168.909 1146.21 173.009 1146.21 178.209C1146.21 186.009 1143.36 192.059 1137.66 196.359C1132.06 200.559 1124.51 202.659 1115.01 202.659Z" fill="white"/>
<path d="M613.817 290.059L623.017 255.059H634.517L643.717 290.059H636.917L635.017 282.359H622.517L620.617 290.059H613.817ZM624.067 276.259H633.467L629.217 259.209H628.317L624.067 276.259ZM647.106 300.059V265.259H653.306V268.259H654.206C654.773 267.292 655.656 266.442 656.856 265.709C658.056 264.942 659.773 264.559 662.006 264.559C664.006 264.559 665.856 265.059 667.556 266.059C669.256 267.026 670.623 268.459 671.656 270.359C672.69 272.259 673.206 274.559 673.206 277.259V278.059C673.206 280.759 672.69 283.059 671.656 284.959C670.623 286.859 669.256 288.309 667.556 289.309C665.856 290.276 664.006 290.759 662.006 290.759C660.506 290.759 659.24 290.576 658.206 290.209C657.206 289.876 656.39 289.442 655.756 288.909C655.156 288.342 654.673 287.776 654.306 287.209H653.406V300.059H647.106ZM660.106 285.259C662.073 285.259 663.69 284.642 664.956 283.409C666.256 282.142 666.906 280.309 666.906 277.909V277.409C666.906 275.009 666.256 273.192 664.956 271.959C663.656 270.692 662.04 270.059 660.106 270.059C658.173 270.059 656.556 270.692 655.256 271.959C653.956 273.192 653.306 275.009 653.306 277.409V277.909C653.306 280.309 653.956 282.142 655.256 283.409C656.556 284.642 658.173 285.259 660.106 285.259ZM677.991 290.059V265.259H684.191V268.059H685.091C685.458 267.059 686.058 266.326 686.891 265.859C687.758 265.392 688.758 265.159 689.891 265.159H692.891V270.759H689.791C688.191 270.759 686.875 271.192 685.841 272.059C684.808 272.892 684.291 274.192 684.291 275.959V290.059H677.991ZM707.237 290.759C704.77 290.759 702.587 290.242 700.687 289.209C698.82 288.142 697.353 286.659 696.287 284.759C695.253 282.826 694.737 280.559 694.737 277.959V277.359C694.737 274.759 695.253 272.509 696.287 270.609C697.32 268.676 698.77 267.192 700.637 266.159C702.503 265.092 704.67 264.559 707.137 264.559C709.57 264.559 711.687 265.109 713.487 266.209C715.287 267.276 716.687 268.776 717.687 270.709C718.687 272.609 719.187 274.826 719.187 277.359V279.509H701.137C701.203 281.209 701.837 282.592 703.037 283.659C704.237 284.726 705.703 285.259 707.437 285.259C709.203 285.259 710.503 284.876 711.337 284.109C712.17 283.342 712.803 282.492 713.237 281.559L718.387 284.259C717.92 285.126 717.237 286.076 716.337 287.109C715.47 288.109 714.303 288.976 712.837 289.709C711.37 290.409 709.503 290.759 707.237 290.759ZM701.187 274.809H712.787C712.653 273.376 712.07 272.226 711.037 271.359C710.037 270.492 708.72 270.059 707.087 270.059C705.387 270.059 704.037 270.492 703.037 271.359C702.037 272.226 701.42 273.376 701.187 274.809ZM723.794 290.059V265.259H729.994V268.509H730.894C731.294 267.642 732.044 266.826 733.144 266.059C734.244 265.259 735.911 264.859 738.144 264.859C740.077 264.859 741.761 265.309 743.194 266.209C744.661 267.076 745.794 268.292 746.594 269.859C747.394 271.392 747.794 273.192 747.794 275.259V290.059H741.494V275.759C741.494 273.892 741.027 272.492 740.094 271.559C739.194 270.626 737.894 270.159 736.194 270.159C734.261 270.159 732.761 270.809 731.694 272.109C730.627 273.376 730.094 275.159 730.094 277.459V290.059H723.794ZM763.605 290.759C761.638 290.759 759.788 290.276 758.055 289.309C756.355 288.309 754.988 286.859 753.955 284.959C752.921 283.059 752.405 280.759 752.405 278.059V277.259C752.405 274.559 752.921 272.259 753.955 270.359C754.988 268.459 756.355 267.026 758.055 266.059C759.755 265.059 761.605 264.559 763.605 264.559C765.105 264.559 766.355 264.742 767.355 265.109C768.388 265.442 769.221 265.876 769.855 266.409C770.488 266.942 770.971 267.509 771.305 268.109H772.205V255.059H778.505V290.059H772.305V287.059H771.405C770.838 287.992 769.955 288.842 768.755 289.609C767.588 290.376 765.871 290.759 763.605 290.759ZM765.505 285.259C767.438 285.259 769.055 284.642 770.355 283.409C771.655 282.142 772.305 280.309 772.305 277.909V277.409C772.305 275.009 771.655 273.192 770.355 271.959C769.088 270.692 767.471 270.059 765.505 270.059C763.571 270.059 761.955 270.692 760.655 271.959C759.355 273.192 758.705 275.009 758.705 277.409V277.909C758.705 280.309 759.355 282.142 760.655 283.409C761.955 284.642 763.571 285.259 765.505 285.259ZM795.789 290.759C793.323 290.759 791.139 290.242 789.239 289.209C787.373 288.142 785.906 286.659 784.839 284.759C783.806 282.826 783.289 280.559 783.289 277.959V277.359C783.289 274.759 783.806 272.509 784.839 270.609C785.873 268.676 787.323 267.192 789.189 266.159C791.056 265.092 793.223 264.559 795.689 264.559C798.123 264.559 800.239 265.109 802.039 266.209C803.839 267.276 805.239 268.776 806.239 270.709C807.239 272.609 807.739 274.826 807.739 277.359V279.509H789.689C789.756 281.209 790.389 282.592 791.589 283.659C792.789 284.726 794.256 285.259 795.989 285.259C797.756 285.259 799.056 284.876 799.889 284.109C800.723 283.342 801.356 282.492 801.789 281.559L806.939 284.259C806.473 285.126 805.789 286.076 804.889 287.109C804.023 288.109 802.856 288.976 801.389 289.709C799.923 290.409 798.056 290.759 795.789 290.759ZM789.739 274.809H801.339C801.206 273.376 800.623 272.226 799.589 271.359C798.589 270.492 797.273 270.059 795.639 270.059C793.939 270.059 792.589 270.492 791.589 271.359C790.589 272.226 789.973 273.376 789.739 274.809ZM831.742 290.759C829.975 290.759 828.392 290.459 826.992 289.859C825.592 289.226 824.475 288.326 823.642 287.159C822.842 285.959 822.442 284.509 822.442 282.809C822.442 281.109 822.842 279.692 823.642 278.559C824.475 277.392 825.609 276.526 827.042 275.959C828.509 275.359 830.175 275.059 832.042 275.059H838.842V273.659C838.842 272.492 838.475 271.542 837.742 270.809C837.009 270.042 835.842 269.659 834.242 269.659C832.675 269.659 831.509 270.026 830.742 270.759C829.975 271.459 829.475 272.376 829.242 273.509L823.442 271.559C823.842 270.292 824.475 269.142 825.342 268.109C826.242 267.042 827.425 266.192 828.892 265.559C830.392 264.892 832.209 264.559 834.342 264.559C837.609 264.559 840.192 265.376 842.092 267.009C843.992 268.642 844.942 271.009 844.942 274.109V283.359C844.942 284.359 845.409 284.859 846.342 284.859H848.342V290.059H844.142C842.909 290.059 841.892 289.759 841.092 289.159C840.292 288.559 839.892 287.759 839.892 286.759V286.709H838.942C838.809 287.109 838.509 287.642 838.042 288.309C837.575 288.942 836.842 289.509 835.842 290.009C834.842 290.509 833.475 290.759 831.742 290.759ZM832.842 285.659C834.609 285.659 836.042 285.176 837.142 284.209C838.275 283.209 838.842 281.892 838.842 280.259V279.759H832.492C831.325 279.759 830.409 280.009 829.742 280.509C829.075 281.009 828.742 281.709 828.742 282.609C828.742 283.509 829.092 284.242 829.792 284.809C830.492 285.376 831.509 285.659 832.842 285.659ZM863.644 300.059V265.259H869.844V268.259H870.744C871.31 267.292 872.194 266.442 873.394 265.709C874.594 264.942 876.31 264.559 878.544 264.559C880.544 264.559 882.394 265.059 884.094 266.059C885.794 267.026 887.16 268.459 888.194 270.359C889.227 272.259 889.744 274.559 889.744 277.259V278.059C889.744 280.759 889.227 283.059 888.194 284.959C887.16 286.859 885.794 288.309 884.094 289.309C882.394 290.276 880.544 290.759 878.544 290.759C877.044 290.759 875.777 290.576 874.744 290.209C873.744 289.876 872.927 289.442 872.294 288.909C871.694 288.342 871.21 287.776 870.844 287.209H869.944V300.059H863.644ZM876.644 285.259C878.61 285.259 880.227 284.642 881.494 283.409C882.794 282.142 883.444 280.309 883.444 277.909V277.409C883.444 275.009 882.794 273.192 881.494 271.959C880.194 270.692 878.577 270.059 876.644 270.059C874.71 270.059 873.094 270.692 871.794 271.959C870.494 273.192 869.844 275.009 869.844 277.409V277.909C869.844 280.309 870.494 282.142 871.794 283.409C873.094 284.642 874.71 285.259 876.644 285.259ZM894.528 290.059V265.259H900.728V268.059H901.628C901.995 267.059 902.595 266.326 903.428 265.859C904.295 265.392 905.295 265.159 906.428 265.159H909.428V270.759H906.328C904.728 270.759 903.412 271.192 902.378 272.059C901.345 272.892 900.828 274.192 900.828 275.959V290.059H894.528ZM924.274 290.759C921.807 290.759 919.59 290.259 917.624 289.259C915.657 288.259 914.107 286.809 912.974 284.909C911.84 283.009 911.274 280.726 911.274 278.059V277.259C911.274 274.592 911.84 272.309 912.974 270.409C914.107 268.509 915.657 267.059 917.624 266.059C919.59 265.059 921.807 264.559 924.274 264.559C926.74 264.559 928.957 265.059 930.924 266.059C932.89 267.059 934.44 268.509 935.574 270.409C936.707 272.309 937.274 274.592 937.274 277.259V278.059C937.274 280.726 936.707 283.009 935.574 284.909C934.44 286.809 932.89 288.259 930.924 289.259C928.957 290.259 926.74 290.759 924.274 290.759ZM924.274 285.159C926.207 285.159 927.807 284.542 929.074 283.309C930.34 282.042 930.974 280.242 930.974 277.909V277.409C930.974 275.076 930.34 273.292 929.074 272.059C927.84 270.792 926.24 270.159 924.274 270.159C922.34 270.159 920.74 270.792 919.474 272.059C918.207 273.292 917.574 275.076 917.574 277.409V277.909C917.574 280.242 918.207 282.042 919.474 283.309C920.74 284.542 922.34 285.159 924.274 285.159ZM940.889 277.759V276.959C940.889 274.359 941.406 272.142 942.439 270.309C943.472 268.442 944.839 267.026 946.539 266.059C948.272 265.059 950.156 264.559 952.189 264.559C954.456 264.559 956.172 264.959 957.339 265.759C958.506 266.559 959.356 267.392 959.889 268.259H960.789V265.259H966.989V294.459C966.989 296.159 966.489 297.509 965.489 298.509C964.489 299.542 963.156 300.059 961.489 300.059H944.889V294.559H959.289C960.222 294.559 960.689 294.059 960.689 293.059V286.609H959.789C959.456 287.142 958.989 287.692 958.389 288.259C957.789 288.792 956.989 289.242 955.989 289.609C954.989 289.976 953.722 290.159 952.189 290.159C950.156 290.159 948.272 289.676 946.539 288.709C944.839 287.709 943.472 286.292 942.439 284.459C941.406 282.592 940.889 280.359 940.889 277.759ZM953.989 284.659C955.922 284.659 957.539 284.042 958.839 282.809C960.139 281.576 960.789 279.842 960.789 277.609V277.109C960.789 274.842 960.139 273.109 958.839 271.909C957.572 270.676 955.956 270.059 953.989 270.059C952.056 270.059 950.439 270.676 949.139 271.909C947.839 273.109 947.189 274.842 947.189 277.109V277.609C947.189 279.842 947.839 281.576 949.139 282.809C950.439 284.042 952.056 284.659 953.989 284.659ZM972.974 290.059V265.259H979.174V268.059H980.074C980.44 267.059 981.04 266.326 981.874 265.859C982.74 265.392 983.74 265.159 984.874 265.159H987.874V270.759H984.774C983.174 270.759 981.857 271.192 980.824 272.059C979.79 272.892 979.274 274.192 979.274 275.959V290.059H972.974ZM998.912 290.759C997.145 290.759 995.562 290.459 994.162 289.859C992.762 289.226 991.645 288.326 990.812 287.159C990.012 285.959 989.612 284.509 989.612 282.809C989.612 281.109 990.012 279.692 990.812 278.559C991.645 277.392 992.779 276.526 994.212 275.959C995.679 275.359 997.345 275.059 999.212 275.059H1006.01V273.659C1006.01 272.492 1005.65 271.542 1004.91 270.809C1004.18 270.042 1003.01 269.659 1001.41 269.659C999.845 269.659 998.679 270.026 997.912 270.759C997.145 271.459 996.645 272.376 996.412 273.509L990.612 271.559C991.012 270.292 991.645 269.142 992.512 268.109C993.412 267.042 994.595 266.192 996.062 265.559C997.562 264.892 999.379 264.559 1001.51 264.559C1004.78 264.559 1007.36 265.376 1009.26 267.009C1011.16 268.642 1012.11 271.009 1012.11 274.109V283.359C1012.11 284.359 1012.58 284.859 1013.51 284.859H1015.51V290.059H1011.31C1010.08 290.059 1009.06 289.759 1008.26 289.159C1007.46 288.559 1007.06 287.759 1007.06 286.759V286.709H1006.11C1005.98 287.109 1005.68 287.642 1005.21 288.309C1004.75 288.942 1004.01 289.509 1003.01 290.009C1002.01 290.509 1000.65 290.759 998.912 290.759ZM1000.01 285.659C1001.78 285.659 1003.21 285.176 1004.31 284.209C1005.45 283.209 1006.01 281.892 1006.01 280.259V279.759H999.662C998.495 279.759 997.579 280.009 996.912 280.509C996.245 281.009 995.912 281.709 995.912 282.609C995.912 283.509 996.262 284.242 996.962 284.809C997.662 285.376 998.679 285.659 1000.01 285.659ZM1019.12 290.059V265.259H1025.32V267.959H1026.22C1026.65 267.126 1027.37 266.409 1028.37 265.809C1029.37 265.176 1030.68 264.859 1032.32 264.859C1034.08 264.859 1035.5 265.209 1036.57 265.909C1037.63 266.576 1038.45 267.459 1039.02 268.559H1039.92C1040.48 267.492 1041.28 266.609 1042.32 265.909C1043.35 265.209 1044.82 264.859 1046.72 264.859C1048.25 264.859 1049.63 265.192 1050.87 265.859C1052.13 266.492 1053.13 267.476 1053.87 268.809C1054.63 270.109 1055.02 271.759 1055.02 273.759V290.059H1048.72V274.209C1048.72 272.842 1048.37 271.826 1047.67 271.159C1046.97 270.459 1045.98 270.109 1044.72 270.109C1043.28 270.109 1042.17 270.576 1041.37 271.509C1040.6 272.409 1040.22 273.709 1040.22 275.409V290.059H1033.92V274.209C1033.92 272.842 1033.57 271.826 1032.87 271.159C1032.17 270.459 1031.18 270.109 1029.92 270.109C1028.48 270.109 1027.37 270.576 1026.57 271.509C1025.8 272.409 1025.42 273.709 1025.42 275.409V290.059H1019.12ZM1068.49 290.759C1066.73 290.759 1065.14 290.459 1063.74 289.859C1062.34 289.226 1061.23 288.326 1060.39 287.159C1059.59 285.959 1059.19 284.509 1059.19 282.809C1059.19 281.109 1059.59 279.692 1060.39 278.559C1061.23 277.392 1062.36 276.526 1063.79 275.959C1065.26 275.359 1066.93 275.059 1068.79 275.059H1075.59V273.659C1075.59 272.492 1075.23 271.542 1074.49 270.809C1073.76 270.042 1072.59 269.659 1070.99 269.659C1069.43 269.659 1068.26 270.026 1067.49 270.759C1066.73 271.459 1066.23 272.376 1065.99 273.509L1060.19 271.559C1060.59 270.292 1061.23 269.142 1062.09 268.109C1062.99 267.042 1064.18 266.192 1065.64 265.559C1067.14 264.892 1068.96 264.559 1071.09 264.559C1074.36 264.559 1076.94 265.376 1078.84 267.009C1080.74 268.642 1081.69 271.009 1081.69 274.109V283.359C1081.69 284.359 1082.16 284.859 1083.09 284.859H1085.09V290.059H1080.89C1079.66 290.059 1078.64 289.759 1077.84 289.159C1077.04 288.559 1076.64 287.759 1076.64 286.759V286.709H1075.69C1075.56 287.109 1075.26 287.642 1074.79 288.309C1074.33 288.942 1073.59 289.509 1072.59 290.009C1071.59 290.509 1070.23 290.759 1068.49 290.759ZM1069.59 285.659C1071.36 285.659 1072.79 285.176 1073.89 284.209C1075.03 283.209 1075.59 281.892 1075.59 280.259V279.759H1069.24C1068.08 279.759 1067.16 280.009 1066.49 280.509C1065.83 281.009 1065.49 281.709 1065.49 282.609C1065.49 283.509 1065.84 284.242 1066.54 284.809C1067.24 285.376 1068.26 285.659 1069.59 285.659ZM1088.7 290.059V265.259H1094.9V268.059H1095.8C1096.17 267.059 1096.77 266.326 1097.6 265.859C1098.47 265.392 1099.47 265.159 1100.6 265.159H1103.6V270.759H1100.5C1098.9 270.759 1097.58 271.192 1096.55 272.059C1095.52 272.892 1095 274.192 1095 275.959V290.059H1088.7Z" fill="white"/>
<rect x="516.129" y="373.186" width="700.592" height="102.345" transform="rotate(-5 516.129 373.186)" fill="black" stroke="black" stroke-width="5"/>
<rect x="508.765" y="368.381" width="695.976" height="97.1106" transform="rotate(-5 508.765 368.381)" fill="#2B50AA" stroke="black" stroke-width="5"/>
<path d="M632.348 422.163L630.187 397.457L636.363 396.917L636.598 399.606L637.495 399.528C637.854 398.66 638.505 397.884 639.449 397.199C640.39 396.481 641.674 396.05 643.301 395.908C645.061 395.754 646.503 395.979 647.627 396.584C648.748 397.155 649.638 397.964 650.298 399.01L651.195 398.932C651.667 397.82 652.387 396.87 653.355 396.083C654.323 395.295 655.754 394.819 657.647 394.653C659.174 394.519 660.581 394.731 661.868 395.288C663.185 395.808 664.267 396.701 665.114 397.965C665.991 399.193 666.516 400.803 666.691 402.796L668.111 419.034L661.835 419.583L660.454 403.793C660.335 402.432 659.898 401.449 659.142 400.846C658.384 400.21 657.374 399.947 656.112 400.057C654.684 400.182 653.612 400.745 652.897 401.744C652.211 402.707 651.943 404.036 652.091 405.729L653.368 420.324L647.092 420.873L645.71 405.083C645.591 403.722 645.154 402.739 644.398 402.136C643.64 401.5 642.63 401.237 641.368 401.347C639.94 401.472 638.869 402.034 638.153 403.034C637.468 403.997 637.199 405.326 637.347 407.019L638.624 421.614L632.348 422.163ZM685.183 418.243C682.726 418.458 680.506 418.133 678.523 417.27C676.571 416.37 674.98 415.02 673.752 413.22C672.554 411.384 671.842 409.171 671.615 406.581L671.563 405.983C671.336 403.393 671.655 401.107 672.519 399.124C673.38 397.108 674.695 395.504 676.464 394.312C678.231 393.086 680.343 392.366 682.8 392.151C685.224 391.939 687.381 392.303 689.27 393.242C691.156 394.147 692.681 395.52 693.846 397.358C695.008 399.164 695.699 401.329 695.92 403.852L696.107 405.994L678.126 407.567C678.341 409.255 679.092 410.578 680.38 411.536C681.669 412.494 683.176 412.897 684.903 412.746C686.663 412.592 687.925 412.097 688.688 411.261C689.451 410.424 690.008 409.523 690.359 408.555L695.724 410.796C695.335 411.7 694.737 412.706 693.93 413.814C693.154 414.885 692.068 415.85 690.67 416.709C689.27 417.534 687.441 418.045 685.183 418.243ZM677.766 402.881L689.322 401.87C689.064 400.454 688.383 399.359 687.278 398.586C686.206 397.809 684.857 397.492 683.23 397.635C681.536 397.783 680.229 398.332 679.308 399.283C678.388 400.233 677.874 401.433 677.766 402.881ZM697.906 426.465L697.435 421.086L700.722 420.798C701.652 420.717 702.074 420.178 701.986 419.182L699.555 391.388L705.831 390.839L708.376 419.928C708.524 421.621 708.143 423.01 707.234 424.093C706.328 425.21 705.045 425.841 703.385 425.986L697.906 426.465ZM702.44 388.225C701.311 388.323 700.316 388.042 699.455 387.382C698.628 386.718 698.161 385.788 698.057 384.593C697.952 383.397 698.25 382.401 698.95 381.604C699.683 380.803 700.614 380.354 701.743 380.255C702.905 380.153 703.9 380.434 704.728 381.098C705.555 381.762 706.021 382.691 706.126 383.887C706.231 385.082 705.933 386.079 705.233 386.876C704.533 387.673 703.602 388.123 702.44 388.225ZM725.765 414.692C723.307 414.907 721.055 414.603 719.009 413.778C716.963 412.953 715.292 411.644 713.998 409.85C712.703 408.056 711.94 405.83 711.707 403.174L711.637 402.377C711.405 399.72 711.77 397.396 712.734 395.405C713.697 393.413 715.115 391.834 716.987 390.666C718.859 389.498 721.024 388.807 723.481 388.592C725.938 388.377 728.19 388.682 730.236 389.507C732.283 390.332 733.953 391.641 735.248 393.435C736.543 395.229 737.306 397.454 737.538 400.111L737.608 400.908C737.841 403.564 737.475 405.888 736.512 407.88C735.548 409.871 734.131 411.451 732.258 412.619C730.386 413.786 728.222 414.478 725.765 414.692ZM725.276 409.114C727.202 408.945 728.743 408.192 729.897 406.852C731.048 405.48 731.522 403.632 731.319 401.307L731.276 400.809C731.072 398.485 730.286 396.764 728.916 395.645C727.577 394.491 725.928 393.999 723.969 394.171C722.043 394.339 720.504 395.11 719.353 396.482C718.199 397.821 717.723 399.653 717.927 401.977L717.97 402.475C718.173 404.8 718.961 406.538 720.333 407.689C721.703 408.807 723.35 409.282 725.276 409.114ZM743.451 412.442L741.29 387.737L747.466 387.196L747.71 389.986L748.607 389.907C748.885 388.879 749.418 388.096 750.208 387.559C751.031 387.018 752.006 386.699 753.136 386.6L756.124 386.339L756.612 391.917L753.524 392.187C751.93 392.327 750.656 392.873 749.702 393.827C748.746 394.747 748.344 396.087 748.498 397.847L749.727 411.893L743.451 412.442ZM793.255 418.123L792.135 405.322L791.239 405.401C790.956 405.994 790.524 406.601 789.942 407.221C789.358 407.807 788.565 408.311 787.565 408.734C786.601 409.186 785.372 409.478 783.877 409.608C781.885 409.783 780 409.462 778.222 408.648C776.441 407.799 774.954 406.474 773.759 404.671C772.564 402.869 771.848 400.622 771.613 397.933L771.543 397.136C771.308 394.446 771.622 392.11 772.486 390.127C773.35 388.144 774.586 386.597 776.196 385.486C777.835 384.339 779.635 383.679 781.594 383.508C783.852 383.31 785.595 383.543 786.824 384.205C788.084 384.831 789.038 385.6 789.687 386.514L790.583 386.436L790.322 383.447L796.498 382.907L799.531 417.574L793.255 418.123ZM785.291 403.964C787.25 403.792 788.807 403.037 789.961 401.698C791.146 400.323 791.633 398.44 791.424 396.049L791.381 395.551C791.172 393.16 790.366 391.407 788.963 390.292C787.558 389.143 785.892 388.653 783.966 388.821C782.04 388.99 780.485 389.762 779.3 391.137C778.112 392.479 777.623 394.345 777.832 396.736L777.876 397.234C778.085 399.625 778.892 401.395 780.298 402.543C781.7 403.659 783.365 404.132 785.291 403.964ZM814.071 406.666C812.145 406.834 810.413 406.551 808.877 405.815C807.37 405.043 806.15 403.912 805.217 402.421C804.283 400.93 803.728 399.172 803.551 397.146L802.261 382.403L808.537 381.853L809.783 396.099C809.946 397.959 810.516 399.314 811.494 400.165C812.505 401.014 813.858 401.364 815.551 401.216C817.477 401.047 818.916 400.286 819.868 398.931C820.818 397.543 821.192 395.703 820.992 393.412L819.894 380.86L826.17 380.311L828.331 405.016L822.155 405.557L821.871 402.319L820.975 402.398C820.649 403.263 819.973 404.142 818.947 405.034C817.921 405.927 816.295 406.471 814.071 406.666ZM845.637 404.205C843.179 404.42 840.959 404.096 838.977 403.232C837.024 402.332 835.434 400.982 834.205 399.182C833.008 397.346 832.295 395.133 832.069 392.543L832.016 391.945C831.79 389.355 832.108 387.069 832.972 385.086C833.833 383.07 835.148 381.466 836.918 380.274C838.684 379.049 840.796 378.328 843.254 378.113C845.678 377.901 847.834 378.265 849.723 379.204C851.609 380.109 853.135 381.482 854.299 383.321C855.461 385.126 856.153 387.291 856.373 389.815L856.561 391.956L838.579 393.529C838.794 395.217 839.545 396.54 840.834 397.498C842.122 398.456 843.63 398.86 845.357 398.709C847.117 398.555 848.378 398.059 849.142 397.223C849.905 396.387 850.462 395.485 850.812 394.517L856.178 396.758C855.788 397.662 855.19 398.668 854.384 399.776C853.608 400.848 852.521 401.813 851.124 402.671C849.724 403.496 847.895 404.007 845.637 404.205ZM838.22 388.843L849.775 387.832C849.518 386.416 848.836 385.321 847.731 384.548C846.66 383.771 845.31 383.455 843.683 383.597C841.99 383.745 840.683 384.294 839.762 385.245C838.841 386.195 838.327 387.395 838.22 388.843ZM885.039 400.758C882.582 400.973 880.362 400.648 878.379 399.785C876.426 398.885 874.836 397.535 873.608 395.735C872.41 393.899 871.698 391.686 871.471 389.096L871.419 388.498C871.192 385.908 871.511 383.622 872.374 381.639C873.235 379.623 874.551 378.019 876.32 376.827C878.087 375.601 880.199 374.881 882.656 374.666C885.08 374.454 887.236 374.818 889.125 375.756C891.012 376.662 892.537 378.034 893.702 379.873C894.863 381.679 895.555 383.844 895.776 386.367L895.963 388.509L877.982 390.082C878.196 391.77 878.948 393.093 880.236 394.051C881.525 395.009 883.032 395.412 884.759 395.261C886.519 395.107 887.78 394.612 888.544 393.776C889.307 392.939 889.864 392.037 890.214 391.07L895.58 393.311C895.191 394.215 894.593 395.221 893.786 396.329C893.01 397.4 891.923 398.365 890.526 399.224C889.126 400.049 887.297 400.56 885.039 400.758ZM877.622 385.396L889.178 384.385C888.92 382.969 888.239 381.874 887.134 381.1C886.062 380.324 884.713 380.007 883.085 380.15C881.392 380.298 880.085 380.847 879.164 381.798C878.243 382.748 877.729 383.948 877.622 385.396ZM901.472 398.617L899.311 373.912L905.487 373.371L905.771 376.609L906.667 376.531C906.99 375.632 907.666 374.753 908.695 373.894C909.721 373.001 911.347 372.457 913.571 372.263C915.497 372.094 917.214 372.396 918.72 373.167C920.256 373.903 921.492 375.016 922.425 376.507C923.356 377.965 923.911 379.723 924.091 381.782L925.381 396.526L919.105 397.075L917.859 382.829C917.696 380.97 917.109 379.616 916.098 378.767C915.12 377.916 913.784 377.564 912.091 377.712C910.165 377.881 908.727 378.659 907.778 380.047C906.826 381.402 906.45 383.225 906.65 385.516L907.748 398.068L901.472 398.617ZM952.269 394.575C950.343 394.743 948.612 394.46 947.075 393.724C945.569 392.953 944.349 391.821 943.416 390.33C942.482 388.839 941.927 387.081 941.749 385.055L940.46 370.312L946.736 369.763L947.982 384.008C948.145 385.868 948.715 387.223 949.693 388.075C950.704 388.923 952.056 389.273 953.75 389.125C955.676 388.956 957.115 388.195 958.067 386.84C959.016 385.452 959.391 383.612 959.19 381.321L958.092 368.769L964.368 368.22L966.53 392.926L960.353 393.466L960.07 390.228L959.173 390.307C958.848 391.172 958.172 392.051 957.146 392.944C956.119 393.836 954.494 394.38 952.269 394.575ZM972.517 392.402L970.356 367.696L976.532 367.156L976.816 370.393L977.712 370.315C978.035 369.417 978.711 368.538 979.74 367.678C980.766 366.785 982.392 366.242 984.616 366.047C986.542 365.878 988.259 366.18 989.765 366.952C991.302 367.687 992.537 368.8 993.47 370.291C994.401 371.749 994.956 373.508 995.136 375.566L996.426 390.31L990.15 390.859L988.904 376.613C988.741 374.754 988.154 373.4 987.143 372.551C986.165 371.7 984.829 371.349 983.136 371.497C981.21 371.665 979.772 372.443 978.823 373.832C977.871 375.186 977.495 377.009 977.695 379.301L978.793 391.853L972.517 392.402ZM1009.95 389.83C1008.19 389.984 1006.58 389.823 1005.14 389.347C1003.69 388.838 1002.5 388.039 1001.56 386.949C1000.66 385.824 1000.14 384.414 999.989 382.721C999.841 381.027 1000.12 379.581 1000.81 378.382C1001.54 377.147 1002.6 376.185 1003.97 375.496C1005.38 374.77 1007.02 374.326 1008.88 374.163L1015.65 373.571L1015.53 372.176C1015.43 371.014 1014.98 370.099 1014.18 369.433C1013.39 368.733 1012.19 368.453 1010.6 368.592C1009.04 368.729 1007.91 369.196 1007.21 369.993C1006.5 370.757 1006.09 371.714 1005.95 372.863L1000 371.426C1000.29 370.13 1000.82 368.929 1001.6 367.824C1002.4 366.683 1003.5 365.733 1004.91 364.974C1006.35 364.179 1008.13 363.689 1010.25 363.503C1013.51 363.218 1016.15 363.807 1018.19 365.268C1020.22 366.73 1021.37 369.005 1021.64 372.093L1022.45 381.308C1022.54 382.304 1023.05 382.761 1023.98 382.68L1025.97 382.505L1026.42 387.686L1022.24 388.052C1021.01 388.159 1019.97 387.949 1019.12 387.421C1018.27 386.893 1017.8 386.131 1017.72 385.135L1017.71 385.085L1016.77 385.168C1016.67 385.578 1016.42 386.135 1016.01 386.84C1015.6 387.512 1014.92 388.14 1013.97 388.725C1013.01 389.311 1011.67 389.679 1009.95 389.83ZM1010.6 384.653C1012.36 384.499 1013.74 383.893 1014.75 382.834C1015.8 381.739 1016.25 380.378 1016.1 378.751L1016.06 378.253L1009.73 378.806C1008.57 378.908 1007.68 379.237 1007.06 379.793C1006.44 380.349 1006.17 381.076 1006.25 381.972C1006.33 382.869 1006.74 383.569 1007.49 384.072C1008.23 384.576 1009.27 384.77 1010.6 384.653ZM1041.47 386.37L1038.42 351.503L1060.33 349.585L1060.85 355.562L1045.51 356.905L1046.25 365.322L1060.4 364.085L1060.92 370.062L1046.77 371.3L1048.04 385.794L1041.47 386.37ZM1067.08 384.129L1064.03 349.262L1078.37 348.007C1080.56 347.815 1082.53 348.095 1084.27 348.846C1086.04 349.562 1087.46 350.675 1088.53 352.188C1089.63 353.698 1090.27 355.548 1090.47 357.74L1090.53 358.437C1090.72 360.596 1090.38 362.532 1089.53 364.246C1088.71 365.924 1087.49 367.286 1085.87 368.331C1084.29 369.339 1082.43 369.937 1080.31 370.122L1072.54 370.802L1073.65 383.554L1067.08 384.129ZM1072.01 364.825L1079.14 364.202C1080.7 364.065 1081.92 363.523 1082.81 362.576C1083.7 361.628 1084.07 360.407 1083.94 358.913L1083.9 358.415C1083.77 356.92 1083.18 355.784 1082.15 355.005C1081.11 354.226 1079.81 353.904 1078.25 354.041L1071.12 354.664L1072.01 364.825Z" fill="white"/>
<defs>
<clipPath id="clip0_2006_145">
<rect width="419.481" height="409.822" fill="white"/>
</clipPath>
</defs>
</svg>
