<svg width="1091" height="1067" viewBox="0 0 1091 1067" fill="none" xmlns="http://www.w3.org/2000/svg">
<rect x="35" y="43" width="1056" height="1024" rx="15" fill="black"/>
<mask id="path-2-inside-1_2005_10" fill="white">
<rect width="1024" height="1024" rx="15"/>
</mask>
<rect width="1024" height="1024" rx="15" fill="#FFCB05" stroke="black" stroke-width="40" mask="url(#path-2-inside-1_2005_10)"/>
<path d="M141.864 771V246H471.864V336H240.864V462.75H453.864V552.75H240.864V771H141.864ZM527.499 771V246H743.499C776.499 246 805.499 252.75 830.499 266.25C855.999 279.25 875.749 297.75 889.749 321.75C904.249 345.75 911.499 374.25 911.499 407.25V417.75C911.499 450.25 903.999 478.75 888.999 503.25C874.499 527.25 854.499 546 828.999 559.5C803.999 572.5 775.499 579 743.499 579H626.499V771H527.499ZM626.499 489H733.749C757.249 489 776.249 482.5 790.749 469.5C805.249 456.5 812.499 438.75 812.499 416.25V408.75C812.499 386.25 805.249 368.5 790.749 355.5C776.249 342.5 757.249 336 733.749 336H626.499V489Z" fill="black"/>
</svg>
