<svg width="1920" height="1080" viewBox="0 0 1920 1080" fill="none" xmlns="http://www.w3.org/2000/svg">
<rect width="1920" height="1080" fill="#FFCB05"/>
<rect x="492.5" y="385.5" width="1037" height="409" fill="black" stroke="black" stroke-width="15"/>
<rect x="441.5" y="336.5" width="1037" height="409" fill="#6B9FFF" stroke="black" stroke-width="15"/>
<g clip-path="url(#clip0_2005_39)">
<path d="M801.82 378.969H515.932C513.624 378.969 511.752 380.839 511.752 383.144V659.825C511.752 662.131 513.624 664 515.932 664H801.82C804.129 664 806 662.131 806 659.825V383.144C806 380.839 804.129 378.969 801.82 378.969Z" fill="black"/>
<mask id="mask0_2005_39" style="mask-type:luminance" maskUnits="userSpaceOnUse" x="502" y="367" width="286" height="286">
<path d="M783.151 367H506.18C503.871 367 502 368.869 502 371.175V647.856C502 650.162 503.871 652.031 506.18 652.031H783.151C785.46 652.031 787.331 650.162 787.331 647.856V371.175C787.331 368.869 785.46 367 783.151 367Z" fill="white"/>
</mask>
<g mask="url(#mask0_2005_39)">
<path d="M783.151 367H506.18C503.871 367 502 368.869 502 371.175V647.856C502 650.162 503.871 652.031 506.18 652.031H783.151C785.46 652.031 787.331 650.162 787.331 647.856V371.175C787.331 368.869 785.46 367 783.151 367Z" fill="#FFCB05" stroke="black" stroke-width="40"/>
</g>
<path d="M541.53 581.608V435.474H633.482V460.526H569.115V495.807H628.466V520.858H569.115V581.608H541.53ZM648.984 581.608V435.474H709.171C718.366 435.474 726.447 437.353 733.413 441.111C740.519 444.729 746.022 449.879 749.923 456.559C753.963 463.24 755.983 471.173 755.983 480.358V483.281C755.983 492.327 753.893 500.26 749.714 507.08C745.673 513.76 740.101 518.979 732.995 522.737C726.029 526.356 718.088 528.165 709.171 528.165H676.57V581.608H648.984ZM676.57 503.113H706.454C713.003 503.113 718.297 501.304 722.337 497.685C726.377 494.067 728.398 489.126 728.398 482.863V480.776C728.398 474.513 726.377 469.572 722.337 465.954C718.297 462.335 713.003 460.526 706.454 460.526H676.57V503.113Z" fill="black"/>
</g>
<path d="M842.289 526V421H908.289V439H862.089V464.35H904.689V482.35H862.089V526H842.289ZM919.416 526V421H962.616C969.216 421 975.016 422.35 980.016 425.05C985.116 427.65 989.066 431.35 991.866 436.15C994.766 440.95 996.216 446.65 996.216 453.25V455.35C996.216 461.85 994.716 467.55 991.716 472.45C988.816 477.25 984.816 481 979.716 483.7C974.716 486.3 969.016 487.6 962.616 487.6H939.216V526H919.416ZM939.216 469.6H960.666C965.366 469.6 969.166 468.3 972.066 465.7C974.966 463.1 976.416 459.55 976.416 455.05V453.55C976.416 449.05 974.966 445.5 972.066 442.9C969.166 440.3 965.366 439 960.666 439H939.216V469.6ZM1043.39 528.1C1035.29 528.1 1028.14 526.65 1021.94 523.75C1015.74 520.85 1010.89 516.7 1007.39 511.3C1003.89 505.9 1002.14 499.4 1002.14 491.8V487.6H1021.64V491.8C1021.64 498.1 1023.59 502.85 1027.49 506.05C1031.39 509.15 1036.69 510.7 1043.39 510.7C1050.19 510.7 1055.24 509.35 1058.54 506.65C1061.94 503.95 1063.64 500.5 1063.64 496.3C1063.64 493.4 1062.79 491.05 1061.09 489.25C1059.49 487.45 1057.09 486 1053.89 484.9C1050.79 483.7 1046.99 482.6 1042.49 481.6L1039.04 480.85C1031.84 479.25 1025.64 477.25 1020.44 474.85C1015.34 472.35 1011.39 469.1 1008.59 465.1C1005.89 461.1 1004.54 455.9 1004.54 449.5C1004.54 443.1 1006.04 437.65 1009.04 433.15C1012.14 428.55 1016.44 425.05 1021.94 422.65C1027.54 420.15 1034.09 418.9 1041.59 418.9C1049.09 418.9 1055.74 420.2 1061.54 422.8C1067.44 425.3 1072.04 429.1 1075.34 434.2C1078.74 439.2 1080.44 445.5 1080.44 453.1V457.6H1060.94V453.1C1060.94 449.1 1060.14 445.9 1058.54 443.5C1057.04 441 1054.84 439.2 1051.94 438.1C1049.04 436.9 1045.59 436.3 1041.59 436.3C1035.59 436.3 1031.14 437.45 1028.24 439.75C1025.44 441.95 1024.04 445 1024.04 448.9C1024.04 451.5 1024.69 453.7 1025.99 455.5C1027.39 457.3 1029.44 458.8 1032.14 460C1034.84 461.2 1038.29 462.25 1042.49 463.15L1045.94 463.9C1053.44 465.5 1059.94 467.55 1065.44 470.05C1071.04 472.55 1075.39 475.85 1078.49 479.95C1081.59 484.05 1083.14 489.3 1083.14 495.7C1083.14 502.1 1081.49 507.75 1078.19 512.65C1074.99 517.45 1070.39 521.25 1064.39 524.05C1058.49 526.75 1051.49 528.1 1043.39 528.1ZM1123.86 527.2C1118.06 527.2 1112.96 525.9 1108.56 523.3C1104.26 520.6 1100.91 516.9 1098.51 512.2C1096.11 507.5 1094.91 502.1 1094.91 496V451.6H1113.81V494.5C1113.81 500.1 1115.16 504.3 1117.86 507.1C1120.66 509.9 1124.61 511.3 1129.71 511.3C1135.51 511.3 1140.01 509.4 1143.21 505.6C1146.41 501.7 1148.01 496.3 1148.01 489.4V451.6H1166.91V526H1148.31V516.25H1145.61C1144.41 518.75 1142.16 521.2 1138.86 523.6C1135.56 526 1130.56 527.2 1123.86 527.2ZM1219.89 528.1C1212.69 528.1 1206.14 526.6 1200.24 523.6C1194.44 520.6 1189.84 516.25 1186.44 510.55C1183.04 504.85 1181.34 497.95 1181.34 489.85V487.75C1181.34 479.65 1183.04 472.75 1186.44 467.05C1189.84 461.35 1194.44 457 1200.24 454C1206.14 451 1212.69 449.5 1219.89 449.5C1226.99 449.5 1233.09 450.75 1238.19 453.25C1243.29 455.75 1247.39 459.2 1250.49 463.6C1253.69 467.9 1255.79 472.8 1256.79 478.3L1238.49 482.2C1238.09 479.2 1237.19 476.5 1235.79 474.1C1234.39 471.7 1232.39 469.8 1229.79 468.4C1227.29 467 1224.14 466.3 1220.34 466.3C1216.54 466.3 1213.09 467.15 1209.99 468.85C1206.99 470.45 1204.59 472.9 1202.79 476.2C1201.09 479.4 1200.24 483.35 1200.24 488.05V489.55C1200.24 494.25 1201.09 498.25 1202.79 501.55C1204.59 504.75 1206.99 507.2 1209.99 508.9C1213.09 510.5 1216.54 511.3 1220.34 511.3C1226.04 511.3 1230.34 509.85 1233.24 506.95C1236.24 503.95 1238.14 500.05 1238.94 495.25L1257.24 499.6C1255.94 504.9 1253.69 509.75 1250.49 514.15C1247.39 518.45 1243.29 521.85 1238.19 524.35C1233.09 526.85 1226.99 528.1 1219.89 528.1ZM1269.83 526V421H1288.73V479.05H1291.43L1316.03 451.6H1340.63L1306.28 487.6L1341.83 526H1317.53L1291.43 496.45H1288.73V526H1269.83ZM1380.35 528.1C1370.65 528.1 1362.7 526 1356.5 521.8C1350.3 517.6 1346.55 511.6 1345.25 503.8L1362.65 499.3C1363.35 502.8 1364.5 505.55 1366.1 507.55C1367.8 509.55 1369.85 511 1372.25 511.9C1374.75 512.7 1377.45 513.1 1380.35 513.1C1384.75 513.1 1388 512.35 1390.1 510.85C1392.2 509.25 1393.25 507.3 1393.25 505C1393.25 502.7 1392.25 500.95 1390.25 499.75C1388.25 498.45 1385.05 497.4 1380.65 496.6L1376.45 495.85C1371.25 494.85 1366.5 493.5 1362.2 491.8C1357.9 490 1354.45 487.55 1351.85 484.45C1349.25 481.35 1347.95 477.35 1347.95 472.45C1347.95 465.05 1350.65 459.4 1356.05 455.5C1361.45 451.5 1368.55 449.5 1377.35 449.5C1385.65 449.5 1392.55 451.35 1398.05 455.05C1403.55 458.75 1407.15 463.6 1408.85 469.6L1391.3 475C1390.5 471.2 1388.85 468.5 1386.35 466.9C1383.95 465.3 1380.95 464.5 1377.35 464.5C1373.75 464.5 1371 465.15 1369.1 466.45C1367.2 467.65 1366.25 469.35 1366.25 471.55C1366.25 473.95 1367.25 475.75 1369.25 476.95C1371.25 478.05 1373.95 478.9 1377.35 479.5L1381.55 480.25C1387.15 481.25 1392.2 482.6 1396.7 484.3C1401.3 485.9 1404.9 488.25 1407.5 491.35C1410.2 494.35 1411.55 498.45 1411.55 503.65C1411.55 511.45 1408.7 517.5 1403 521.8C1397.4 526 1389.85 528.1 1380.35 528.1Z" fill="black"/>
<path d="M879.346 582L888.546 547H900.046L909.246 582H902.446L900.546 574.3H888.046L886.146 582H879.346ZM889.596 568.2H898.996L894.746 551.15H893.846L889.596 568.2ZM912.636 592V557.2H918.836V560.2H919.736C920.302 559.233 921.186 558.383 922.386 557.65C923.586 556.883 925.302 556.5 927.536 556.5C929.536 556.5 931.386 557 933.086 558C934.786 558.967 936.152 560.4 937.186 562.3C938.219 564.2 938.736 566.5 938.736 569.2V570C938.736 572.7 938.219 575 937.186 576.9C936.152 578.8 934.786 580.25 933.086 581.25C931.386 582.217 929.536 582.7 927.536 582.7C926.036 582.7 924.769 582.517 923.736 582.15C922.736 581.817 921.919 581.383 921.286 580.85C920.686 580.283 920.202 579.717 919.836 579.15H918.936V592H912.636ZM925.636 577.2C927.602 577.2 929.219 576.583 930.486 575.35C931.786 574.083 932.436 572.25 932.436 569.85V569.35C932.436 566.95 931.786 565.133 930.486 563.9C929.186 562.633 927.569 562 925.636 562C923.702 562 922.086 562.633 920.786 563.9C919.486 565.133 918.836 566.95 918.836 569.35V569.85C918.836 572.25 919.486 574.083 920.786 575.35C922.086 576.583 923.702 577.2 925.636 577.2ZM943.521 582V557.2H949.721V560H950.621C950.987 559 951.587 558.267 952.421 557.8C953.287 557.333 954.287 557.1 955.421 557.1H958.421V562.7H955.321C953.721 562.7 952.404 563.133 951.371 564C950.337 564.833 949.821 566.133 949.821 567.9V582H943.521ZM972.766 582.7C970.299 582.7 968.116 582.183 966.216 581.15C964.349 580.083 962.882 578.6 961.816 576.7C960.782 574.767 960.266 572.5 960.266 569.9V569.3C960.266 566.7 960.782 564.45 961.816 562.55C962.849 560.617 964.299 559.133 966.166 558.1C968.032 557.033 970.199 556.5 972.666 556.5C975.099 556.5 977.216 557.05 979.016 558.15C980.816 559.217 982.216 560.717 983.216 562.65C984.216 564.55 984.716 566.767 984.716 569.3V571.45H966.666C966.732 573.15 967.366 574.533 968.566 575.6C969.766 576.667 971.232 577.2 972.966 577.2C974.732 577.2 976.032 576.817 976.866 576.05C977.699 575.283 978.332 574.433 978.766 573.5L983.916 576.2C983.449 577.067 982.766 578.017 981.866 579.05C980.999 580.05 979.832 580.917 978.366 581.65C976.899 582.35 975.032 582.7 972.766 582.7ZM966.716 566.75H978.316C978.182 565.317 977.599 564.167 976.566 563.3C975.566 562.433 974.249 562 972.616 562C970.916 562 969.566 562.433 968.566 563.3C967.566 564.167 966.949 565.317 966.716 566.75ZM989.323 582V557.2H995.523V560.45H996.423C996.823 559.583 997.573 558.767 998.673 558C999.773 557.2 1001.44 556.8 1003.67 556.8C1005.61 556.8 1007.29 557.25 1008.72 558.15C1010.19 559.017 1011.32 560.233 1012.12 561.8C1012.92 563.333 1013.32 565.133 1013.32 567.2V582H1007.02V567.7C1007.02 565.833 1006.56 564.433 1005.62 563.5C1004.72 562.567 1003.42 562.1 1001.72 562.1C999.79 562.1 998.29 562.75 997.223 564.05C996.157 565.317 995.623 567.1 995.623 569.4V582H989.323ZM1029.13 582.7C1027.17 582.7 1025.32 582.217 1023.58 581.25C1021.88 580.25 1020.52 578.8 1019.48 576.9C1018.45 575 1017.93 572.7 1017.93 570V569.2C1017.93 566.5 1018.45 564.2 1019.48 562.3C1020.52 560.4 1021.88 558.967 1023.58 558C1025.28 557 1027.13 556.5 1029.13 556.5C1030.63 556.5 1031.88 556.683 1032.88 557.05C1033.92 557.383 1034.75 557.817 1035.38 558.35C1036.02 558.883 1036.5 559.45 1036.83 560.05H1037.73V547H1044.03V582H1037.83V579H1036.93C1036.37 579.933 1035.48 580.783 1034.28 581.55C1033.12 582.317 1031.4 582.7 1029.13 582.7ZM1031.03 577.2C1032.97 577.2 1034.58 576.583 1035.88 575.35C1037.18 574.083 1037.83 572.25 1037.83 569.85V569.35C1037.83 566.95 1037.18 565.133 1035.88 563.9C1034.62 562.633 1033 562 1031.03 562C1029.1 562 1027.48 562.633 1026.18 563.9C1024.88 565.133 1024.23 566.95 1024.23 569.35V569.85C1024.23 572.25 1024.88 574.083 1026.18 575.35C1027.48 576.583 1029.1 577.2 1031.03 577.2ZM1061.32 582.7C1058.85 582.7 1056.67 582.183 1054.77 581.15C1052.9 580.083 1051.44 578.6 1050.37 576.7C1049.34 574.767 1048.82 572.5 1048.82 569.9V569.3C1048.82 566.7 1049.34 564.45 1050.37 562.55C1051.4 560.617 1052.85 559.133 1054.72 558.1C1056.59 557.033 1058.75 556.5 1061.22 556.5C1063.65 556.5 1065.77 557.05 1067.57 558.15C1069.37 559.217 1070.77 560.717 1071.77 562.65C1072.77 564.55 1073.27 566.767 1073.27 569.3V571.45H1055.22C1055.29 573.15 1055.92 574.533 1057.12 575.6C1058.32 576.667 1059.79 577.2 1061.52 577.2C1063.29 577.2 1064.59 576.817 1065.42 576.05C1066.25 575.283 1066.89 574.433 1067.32 573.5L1072.47 576.2C1072 577.067 1071.32 578.017 1070.42 579.05C1069.55 580.05 1068.39 580.917 1066.92 581.65C1065.45 582.35 1063.59 582.7 1061.32 582.7ZM1055.27 566.75H1066.87C1066.74 565.317 1066.15 564.167 1065.12 563.3C1064.12 562.433 1062.8 562 1061.17 562C1059.47 562 1058.12 562.433 1057.12 563.3C1056.12 564.167 1055.5 565.317 1055.27 566.75ZM1097.27 582.7C1095.5 582.7 1093.92 582.4 1092.52 581.8C1091.12 581.167 1090 580.267 1089.17 579.1C1088.37 577.9 1087.97 576.45 1087.97 574.75C1087.97 573.05 1088.37 571.633 1089.17 570.5C1090 569.333 1091.14 568.467 1092.57 567.9C1094.04 567.3 1095.7 567 1097.57 567H1104.37V565.6C1104.37 564.433 1104 563.483 1103.27 562.75C1102.54 561.983 1101.37 561.6 1099.77 561.6C1098.2 561.6 1097.04 561.967 1096.27 562.7C1095.5 563.4 1095 564.317 1094.77 565.45L1088.97 563.5C1089.37 562.233 1090 561.083 1090.87 560.05C1091.77 558.983 1092.95 558.133 1094.42 557.5C1095.92 556.833 1097.74 556.5 1099.87 556.5C1103.14 556.5 1105.72 557.317 1107.62 558.95C1109.52 560.583 1110.47 562.95 1110.47 566.05V575.3C1110.47 576.3 1110.94 576.8 1111.87 576.8H1113.87V582H1109.67C1108.44 582 1107.42 581.7 1106.62 581.1C1105.82 580.5 1105.42 579.7 1105.42 578.7V578.65H1104.47C1104.34 579.05 1104.04 579.583 1103.57 580.25C1103.1 580.883 1102.37 581.45 1101.37 581.95C1100.37 582.45 1099 582.7 1097.27 582.7ZM1098.37 577.6C1100.14 577.6 1101.57 577.117 1102.67 576.15C1103.8 575.15 1104.37 573.833 1104.37 572.2V571.7H1098.02C1096.85 571.7 1095.94 571.95 1095.27 572.45C1094.6 572.95 1094.27 573.65 1094.27 574.55C1094.27 575.45 1094.62 576.183 1095.32 576.75C1096.02 577.317 1097.04 577.6 1098.37 577.6ZM1129.17 592V557.2H1135.37V560.2H1136.27C1136.84 559.233 1137.72 558.383 1138.92 557.65C1140.12 556.883 1141.84 556.5 1144.07 556.5C1146.07 556.5 1147.92 557 1149.62 558C1151.32 558.967 1152.69 560.4 1153.72 562.3C1154.76 564.2 1155.27 566.5 1155.27 569.2V570C1155.27 572.7 1154.76 575 1153.72 576.9C1152.69 578.8 1151.32 580.25 1149.62 581.25C1147.92 582.217 1146.07 582.7 1144.07 582.7C1142.57 582.7 1141.31 582.517 1140.27 582.15C1139.27 581.817 1138.46 581.383 1137.82 580.85C1137.22 580.283 1136.74 579.717 1136.37 579.15H1135.47V592H1129.17ZM1142.17 577.2C1144.14 577.2 1145.76 576.583 1147.02 575.35C1148.32 574.083 1148.97 572.25 1148.97 569.85V569.35C1148.97 566.95 1148.32 565.133 1147.02 563.9C1145.72 562.633 1144.11 562 1142.17 562C1140.24 562 1138.62 562.633 1137.32 563.9C1136.02 565.133 1135.37 566.95 1135.37 569.35V569.85C1135.37 572.25 1136.02 574.083 1137.32 575.35C1138.62 576.583 1140.24 577.2 1142.17 577.2ZM1160.06 582V557.2H1166.26V560H1167.16C1167.52 559 1168.12 558.267 1168.96 557.8C1169.82 557.333 1170.82 557.1 1171.96 557.1H1174.96V562.7H1171.86C1170.26 562.7 1168.94 563.133 1167.91 564C1166.87 564.833 1166.36 566.133 1166.36 567.9V582H1160.06ZM1189.8 582.7C1187.34 582.7 1185.12 582.2 1183.15 581.2C1181.19 580.2 1179.64 578.75 1178.5 576.85C1177.37 574.95 1176.8 572.667 1176.8 570V569.2C1176.8 566.533 1177.37 564.25 1178.5 562.35C1179.64 560.45 1181.19 559 1183.15 558C1185.12 557 1187.34 556.5 1189.8 556.5C1192.27 556.5 1194.49 557 1196.45 558C1198.42 559 1199.97 560.45 1201.1 562.35C1202.24 564.25 1202.8 566.533 1202.8 569.2V570C1202.8 572.667 1202.24 574.95 1201.1 576.85C1199.97 578.75 1198.42 580.2 1196.45 581.2C1194.49 582.2 1192.27 582.7 1189.8 582.7ZM1189.8 577.1C1191.74 577.1 1193.34 576.483 1194.6 575.25C1195.87 573.983 1196.5 572.183 1196.5 569.85V569.35C1196.5 567.017 1195.87 565.233 1194.6 564C1193.37 562.733 1191.77 562.1 1189.8 562.1C1187.87 562.1 1186.27 562.733 1185 564C1183.74 565.233 1183.1 567.017 1183.1 569.35V569.85C1183.1 572.183 1183.74 573.983 1185 575.25C1186.27 576.483 1187.87 577.1 1189.8 577.1ZM1206.42 569.7V568.9C1206.42 566.3 1206.93 564.083 1207.97 562.25C1209 560.383 1210.37 558.967 1212.07 558C1213.8 557 1215.68 556.5 1217.72 556.5C1219.98 556.5 1221.7 556.9 1222.87 557.7C1224.03 558.5 1224.88 559.333 1225.42 560.2H1226.32V557.2H1232.52V586.4C1232.52 588.1 1232.02 589.45 1231.02 590.45C1230.02 591.483 1228.68 592 1227.02 592H1210.42V586.5H1224.82C1225.75 586.5 1226.22 586 1226.22 585V578.55H1225.32C1224.98 579.083 1224.52 579.633 1223.92 580.2C1223.32 580.733 1222.52 581.183 1221.52 581.55C1220.52 581.917 1219.25 582.1 1217.72 582.1C1215.68 582.1 1213.8 581.617 1212.07 580.65C1210.37 579.65 1209 578.233 1207.97 576.4C1206.93 574.533 1206.42 572.3 1206.42 569.7ZM1219.52 576.6C1221.45 576.6 1223.07 575.983 1224.37 574.75C1225.67 573.517 1226.32 571.783 1226.32 569.55V569.05C1226.32 566.783 1225.67 565.05 1224.37 563.85C1223.1 562.617 1221.48 562 1219.52 562C1217.58 562 1215.97 562.617 1214.67 563.85C1213.37 565.05 1212.72 566.783 1212.72 569.05V569.55C1212.72 571.783 1213.37 573.517 1214.67 574.75C1215.97 575.983 1217.58 576.6 1219.52 576.6ZM1238.5 582V557.2H1244.7V560H1245.6C1245.97 559 1246.57 558.267 1247.4 557.8C1248.27 557.333 1249.27 557.1 1250.4 557.1H1253.4V562.7H1250.3C1248.7 562.7 1247.39 563.133 1246.35 564C1245.32 564.833 1244.8 566.133 1244.8 567.9V582H1238.5ZM1264.44 582.7C1262.67 582.7 1261.09 582.4 1259.69 581.8C1258.29 581.167 1257.17 580.267 1256.34 579.1C1255.54 577.9 1255.14 576.45 1255.14 574.75C1255.14 573.05 1255.54 571.633 1256.34 570.5C1257.17 569.333 1258.31 568.467 1259.74 567.9C1261.21 567.3 1262.87 567 1264.74 567H1271.54V565.6C1271.54 564.433 1271.17 563.483 1270.44 562.75C1269.71 561.983 1268.54 561.6 1266.94 561.6C1265.37 561.6 1264.21 561.967 1263.44 562.7C1262.67 563.4 1262.17 564.317 1261.94 565.45L1256.14 563.5C1256.54 562.233 1257.17 561.083 1258.04 560.05C1258.94 558.983 1260.12 558.133 1261.59 557.5C1263.09 556.833 1264.91 556.5 1267.04 556.5C1270.31 556.5 1272.89 557.317 1274.79 558.95C1276.69 560.583 1277.64 562.95 1277.64 566.05V575.3C1277.64 576.3 1278.11 576.8 1279.04 576.8H1281.04V582H1276.84C1275.61 582 1274.59 581.7 1273.79 581.1C1272.99 580.5 1272.59 579.7 1272.59 578.7V578.65H1271.64C1271.51 579.05 1271.21 579.583 1270.74 580.25C1270.27 580.883 1269.54 581.45 1268.54 581.95C1267.54 582.45 1266.17 582.7 1264.44 582.7ZM1265.54 577.6C1267.31 577.6 1268.74 577.117 1269.84 576.15C1270.97 575.15 1271.54 573.833 1271.54 572.2V571.7H1265.19C1264.02 571.7 1263.11 571.95 1262.44 572.45C1261.77 572.95 1261.44 573.65 1261.44 574.55C1261.44 575.45 1261.79 576.183 1262.49 576.75C1263.19 577.317 1264.21 577.6 1265.54 577.6ZM1284.65 582V557.2H1290.85V559.9H1291.75C1292.18 559.067 1292.9 558.35 1293.9 557.75C1294.9 557.117 1296.21 556.8 1297.85 556.8C1299.61 556.8 1301.03 557.15 1302.1 557.85C1303.16 558.517 1303.98 559.4 1304.55 560.5H1305.45C1306.01 559.433 1306.81 558.55 1307.85 557.85C1308.88 557.15 1310.35 556.8 1312.25 556.8C1313.78 556.8 1315.16 557.133 1316.4 557.8C1317.66 558.433 1318.66 559.417 1319.4 560.75C1320.16 562.05 1320.55 563.7 1320.55 565.7V582H1314.25V566.15C1314.25 564.783 1313.9 563.767 1313.2 563.1C1312.5 562.4 1311.51 562.05 1310.25 562.05C1308.81 562.05 1307.7 562.517 1306.9 563.45C1306.13 564.35 1305.75 565.65 1305.75 567.35V582H1299.45V566.15C1299.45 564.783 1299.1 563.767 1298.4 563.1C1297.7 562.4 1296.71 562.05 1295.45 562.05C1294.01 562.05 1292.9 562.517 1292.1 563.45C1291.33 564.35 1290.95 565.65 1290.95 567.35V582H1284.65ZM1334.02 582.7C1332.26 582.7 1330.67 582.4 1329.27 581.8C1327.87 581.167 1326.76 580.267 1325.92 579.1C1325.12 577.9 1324.72 576.45 1324.72 574.75C1324.72 573.05 1325.12 571.633 1325.92 570.5C1326.76 569.333 1327.89 568.467 1329.32 567.9C1330.79 567.3 1332.46 567 1334.32 567H1341.12V565.6C1341.12 564.433 1340.76 563.483 1340.02 562.75C1339.29 561.983 1338.12 561.6 1336.52 561.6C1334.96 561.6 1333.79 561.967 1333.02 562.7C1332.26 563.4 1331.76 564.317 1331.52 565.45L1325.72 563.5C1326.12 562.233 1326.76 561.083 1327.62 560.05C1328.52 558.983 1329.71 558.133 1331.17 557.5C1332.67 556.833 1334.49 556.5 1336.62 556.5C1339.89 556.5 1342.47 557.317 1344.37 558.95C1346.27 560.583 1347.22 562.95 1347.22 566.05V575.3C1347.22 576.3 1347.69 576.8 1348.62 576.8H1350.62V582H1346.42C1345.19 582 1344.17 581.7 1343.37 581.1C1342.57 580.5 1342.17 579.7 1342.17 578.7V578.65H1341.22C1341.09 579.05 1340.79 579.583 1340.32 580.25C1339.86 580.883 1339.12 581.45 1338.12 581.95C1337.12 582.45 1335.76 582.7 1334.02 582.7ZM1335.12 577.6C1336.89 577.6 1338.32 577.117 1339.42 576.15C1340.56 575.15 1341.12 573.833 1341.12 572.2V571.7H1334.77C1333.61 571.7 1332.69 571.95 1332.02 572.45C1331.36 572.95 1331.02 573.65 1331.02 574.55C1331.02 575.45 1331.37 576.183 1332.07 576.75C1332.77 577.317 1333.79 577.6 1335.12 577.6ZM1354.23 582V557.2H1360.43V560H1361.33C1361.7 559 1362.3 558.267 1363.13 557.8C1364 557.333 1365 557.1 1366.13 557.1H1369.13V562.7H1366.03C1364.43 562.7 1363.11 563.133 1362.08 564C1361.05 564.833 1360.53 566.133 1360.53 567.9V582H1354.23Z" fill="black"/>
<rect x="876.787" y="638.075" width="506.345" height="72.7935" transform="rotate(-5 876.787 638.075)" fill="black" stroke="black" stroke-width="5"/>
<rect x="871.45" y="634.593" width="503" height="69" transform="rotate(-5 871.45 634.593)" fill="#2B50AA" stroke="black" stroke-width="5"/>
<path d="M897.608 682.887L895.447 658.181L901.623 657.641L901.858 660.33L902.755 660.252C903.114 659.384 903.765 658.608 904.709 657.923C905.65 657.205 906.934 656.775 908.561 656.632C910.321 656.478 911.763 656.703 912.887 657.308C914.007 657.879 914.898 658.688 915.558 659.734L916.455 659.656C916.927 658.544 917.647 657.594 918.615 656.807C919.583 656.019 921.014 655.543 922.907 655.377C924.434 655.244 925.841 655.455 927.128 656.012C928.445 656.532 929.527 657.425 930.374 658.689C931.251 659.917 931.776 661.528 931.951 663.52L933.371 679.758L927.095 680.307L925.714 664.517C925.595 663.156 925.158 662.174 924.402 661.57C923.644 660.934 922.634 660.671 921.372 660.781C919.944 660.906 918.872 661.469 918.157 662.468C917.471 663.432 917.203 664.76 917.351 666.454L918.628 681.048L912.352 681.597L910.97 665.807C910.851 664.446 910.414 663.463 909.658 662.86C908.9 662.224 907.89 661.961 906.628 662.071C905.2 662.196 904.129 662.759 903.413 663.758C902.728 664.721 902.459 666.05 902.607 667.743L903.884 682.338L897.608 682.887ZM950.443 678.967C947.986 679.182 945.766 678.858 943.783 677.994C941.83 677.094 940.24 675.744 939.012 673.944C937.814 672.108 937.102 669.895 936.875 667.305L936.823 666.707C936.596 664.117 936.915 661.831 937.779 659.848C938.64 657.832 939.955 656.228 941.724 655.036C943.491 653.81 945.603 653.09 948.06 652.875C950.484 652.663 952.641 653.027 954.53 653.966C956.416 654.871 957.941 656.244 959.106 658.082C960.268 659.888 960.959 662.053 961.18 664.576L961.367 666.718L943.386 668.291C943.6 669.979 944.352 671.302 945.64 672.26C946.929 673.218 948.436 673.622 950.163 673.47C951.923 673.316 953.185 672.821 953.948 671.985C954.711 671.149 955.268 670.247 955.619 669.279L960.984 671.52C960.595 672.424 959.997 673.43 959.19 674.538C958.414 675.609 957.328 676.575 955.93 677.433C954.53 678.258 952.701 678.769 950.443 678.967ZM943.026 663.605L954.582 662.594C954.324 661.178 953.643 660.083 952.538 659.31C951.466 658.533 950.117 658.216 948.49 658.359C946.796 658.507 945.489 659.056 944.568 660.007C943.648 660.957 943.134 662.157 943.026 663.605ZM963.166 687.189L962.695 681.81L965.982 681.522C966.912 681.441 967.334 680.902 967.246 679.906L964.815 652.112L971.091 651.563L973.636 680.652C973.784 682.346 973.403 683.734 972.494 684.817C971.588 685.934 970.305 686.565 968.645 686.71L963.166 687.189ZM967.7 648.949C966.571 649.047 965.576 648.766 964.715 648.106C963.888 647.442 963.421 646.512 963.317 645.317C963.212 644.121 963.51 643.125 964.21 642.328C964.943 641.527 965.874 641.078 967.003 640.979C968.165 640.877 969.16 641.158 969.988 641.822C970.815 642.486 971.281 643.416 971.386 644.611C971.491 645.806 971.193 646.803 970.493 647.6C969.793 648.397 968.862 648.847 967.7 648.949ZM991.025 675.417C988.567 675.632 986.315 675.327 984.269 674.502C982.223 673.677 980.552 672.368 979.258 670.574C977.963 668.78 977.2 666.554 976.967 663.898L976.897 663.101C976.665 660.444 977.03 658.12 977.994 656.129C978.957 654.137 980.375 652.558 982.247 651.39C984.119 650.223 986.284 649.531 988.741 649.316C991.198 649.101 993.45 649.406 995.496 650.231C997.543 651.056 999.213 652.365 1000.51 654.159C1001.8 655.953 1002.57 658.178 1002.8 660.835L1002.87 661.632C1003.1 664.288 1002.74 666.612 1001.77 668.604C1000.81 670.596 999.39 672.175 997.518 673.343C995.646 674.51 993.482 675.202 991.025 675.417ZM990.536 669.838C992.462 669.669 994.003 668.916 995.157 667.577C996.308 666.204 996.782 664.356 996.579 662.032L996.535 661.533C996.332 659.209 995.546 657.488 994.176 656.369C992.837 655.215 991.188 654.724 989.229 654.895C987.303 655.063 985.764 655.834 984.613 657.206C983.459 658.545 982.983 660.377 983.186 662.701L983.23 663.199C983.433 665.524 984.221 667.262 985.593 668.413C986.963 669.531 988.61 670.006 990.536 669.838ZM1008.71 673.167L1006.55 648.461L1012.73 647.921L1012.97 650.71L1013.87 650.631C1014.14 649.603 1014.68 648.82 1015.47 648.283C1016.29 647.742 1017.27 647.423 1018.4 647.324L1021.38 647.063L1021.87 652.641L1018.78 652.912C1017.19 653.051 1015.92 653.597 1014.96 654.551C1014.01 655.471 1013.6 656.811 1013.76 658.571L1014.99 672.617L1008.71 673.167ZM1058.52 678.847L1057.4 666.046L1056.5 666.125C1056.22 666.718 1055.78 667.325 1055.2 667.945C1054.62 668.531 1053.83 669.035 1052.83 669.458C1051.86 669.91 1050.63 670.202 1049.14 670.332C1047.14 670.507 1045.26 670.186 1043.48 669.372C1041.7 668.524 1040.21 667.198 1039.02 665.395C1037.82 663.593 1037.11 661.347 1036.87 658.657L1036.8 657.86C1036.57 655.17 1036.88 652.834 1037.75 650.851C1038.61 648.868 1039.85 647.321 1041.46 646.21C1043.1 645.063 1044.89 644.403 1046.85 644.232C1049.11 644.034 1050.86 644.267 1052.08 644.929C1053.34 645.555 1054.3 646.325 1054.95 647.238L1055.84 647.16L1055.58 644.171L1061.76 643.631L1064.79 678.298L1058.52 678.847ZM1050.55 664.688C1052.51 664.516 1054.07 663.761 1055.22 662.422C1056.41 661.047 1056.89 659.164 1056.68 656.773L1056.64 656.275C1056.43 653.884 1055.63 652.131 1054.22 651.016C1052.82 649.867 1051.15 649.377 1049.23 649.546C1047.3 649.714 1045.74 650.486 1044.56 651.861C1043.37 653.203 1042.88 655.069 1043.09 657.46L1043.14 657.958C1043.35 660.349 1044.15 662.119 1045.56 663.267C1046.96 664.383 1048.62 664.856 1050.55 664.688ZM1079.33 667.39C1077.4 667.558 1075.67 667.275 1074.14 666.539C1072.63 665.767 1071.41 664.636 1070.48 663.145C1069.54 661.654 1068.99 659.896 1068.81 657.87L1067.52 643.127L1073.8 642.578L1075.04 656.823C1075.21 658.683 1075.78 660.038 1076.75 660.889C1077.77 661.738 1079.12 662.088 1080.81 661.94C1082.74 661.771 1084.18 661.01 1085.13 659.655C1086.08 658.267 1086.45 656.427 1086.25 654.136L1085.15 641.584L1091.43 641.035L1093.59 665.74L1087.41 666.281L1087.13 663.043L1086.23 663.122C1085.91 663.987 1085.23 664.866 1084.21 665.758C1083.18 666.651 1081.56 667.195 1079.33 667.39ZM1110.9 664.929C1108.44 665.144 1106.22 664.82 1104.24 663.956C1102.28 663.056 1100.69 661.706 1099.47 659.906C1098.27 658.07 1097.56 655.857 1097.33 653.267L1097.28 652.67C1097.05 650.079 1097.37 647.793 1098.23 645.81C1099.09 643.794 1100.41 642.19 1102.18 640.998C1103.94 639.773 1106.06 639.052 1108.51 638.838C1110.94 638.625 1113.09 638.989 1114.98 639.928C1116.87 640.834 1118.39 642.206 1119.56 644.045C1120.72 645.85 1121.41 648.015 1121.63 650.539L1121.82 652.68L1103.84 654.254C1104.05 655.941 1104.81 657.264 1106.09 658.222C1107.38 659.18 1108.89 659.584 1110.62 659.433C1112.38 659.279 1113.64 658.783 1114.4 657.947C1115.16 657.111 1115.72 656.209 1116.07 655.241L1121.44 657.482C1121.05 658.386 1120.45 659.392 1119.64 660.5C1118.87 661.572 1117.78 662.537 1116.38 663.395C1114.98 664.22 1113.15 664.732 1110.9 664.929ZM1103.48 649.567L1115.04 648.556C1114.78 647.14 1114.1 646.045 1112.99 645.272C1111.92 644.496 1110.57 644.179 1108.94 644.321C1107.25 644.469 1105.94 645.018 1105.02 645.969C1104.1 646.92 1103.59 648.119 1103.48 649.567ZM1150.3 661.482C1147.84 661.697 1145.62 661.372 1143.64 660.509C1141.69 659.609 1140.1 658.259 1138.87 656.459C1137.67 654.623 1136.96 652.41 1136.73 649.82L1136.68 649.222C1136.45 646.632 1136.77 644.346 1137.63 642.363C1138.5 640.347 1139.81 638.743 1141.58 637.551C1143.35 636.325 1145.46 635.605 1147.92 635.39C1150.34 635.178 1152.5 635.542 1154.39 636.481C1156.27 637.386 1157.8 638.759 1158.96 640.597C1160.12 642.403 1160.81 644.568 1161.04 647.091L1161.22 649.233L1143.24 650.806C1143.46 652.494 1144.21 653.817 1145.5 654.775C1146.78 655.733 1148.29 656.136 1150.02 655.985C1151.78 655.831 1153.04 655.336 1153.8 654.5C1154.57 653.663 1155.12 652.761 1155.47 651.794L1160.84 654.035C1160.45 654.939 1159.85 655.945 1159.05 657.053C1158.27 658.124 1157.18 659.089 1155.79 659.948C1154.39 660.773 1152.56 661.284 1150.3 661.482ZM1142.88 646.12L1154.44 645.109C1154.18 643.693 1153.5 642.598 1152.39 641.824C1151.32 641.048 1149.97 640.731 1148.35 640.874C1146.65 641.022 1145.34 641.571 1144.42 642.522C1143.5 643.472 1142.99 644.672 1142.88 646.12ZM1166.73 659.341L1164.57 634.636L1170.75 634.095L1171.03 637.333L1171.93 637.255C1172.25 636.356 1172.93 635.477 1173.95 634.618C1174.98 633.725 1176.61 633.181 1178.83 632.987C1180.76 632.818 1182.47 633.12 1183.98 633.891C1185.52 634.627 1186.75 635.74 1187.69 637.231C1188.62 638.689 1189.17 640.447 1189.35 642.506L1190.64 657.25L1184.36 657.799L1183.12 643.553C1182.96 641.694 1182.37 640.34 1181.36 639.491C1180.38 638.64 1179.04 638.288 1177.35 638.436C1175.42 638.605 1173.99 639.383 1173.04 640.771C1172.09 642.126 1171.71 643.949 1171.91 646.24L1173.01 658.792L1166.73 659.341ZM1217.53 655.299C1215.6 655.467 1213.87 655.184 1212.34 654.448C1210.83 653.677 1209.61 652.545 1208.68 651.054C1207.74 649.563 1207.19 647.805 1207.01 645.779L1205.72 631.036L1212 630.487L1213.24 644.732C1213.4 646.592 1213.97 647.947 1214.95 648.799C1215.96 649.647 1217.32 649.997 1219.01 649.849C1220.94 649.681 1222.37 648.919 1223.33 647.564C1224.28 646.176 1224.65 644.336 1224.45 642.045L1223.35 629.493L1229.63 628.944L1231.79 653.65L1225.61 654.19L1225.33 650.952L1224.43 651.031C1224.11 651.896 1223.43 652.775 1222.41 653.668C1221.38 654.56 1219.75 655.104 1217.53 655.299ZM1237.78 653.126L1235.62 628.42L1241.79 627.88L1242.08 631.117L1242.97 631.039C1243.3 630.141 1243.97 629.262 1245 628.402C1246.03 627.509 1247.65 626.966 1249.88 626.771C1251.8 626.603 1253.52 626.904 1255.02 627.676C1256.56 628.411 1257.8 629.525 1258.73 631.016C1259.66 632.473 1260.22 634.232 1260.4 636.29L1261.69 651.034L1255.41 651.583L1254.16 637.338C1254 635.478 1253.41 634.124 1252.4 633.276C1251.43 632.424 1250.09 632.073 1248.4 632.221C1246.47 632.389 1245.03 633.168 1244.08 634.556C1243.13 635.91 1242.75 637.733 1242.96 640.025L1244.05 652.577L1237.78 653.126ZM1275.21 650.554C1273.45 650.708 1271.84 650.547 1270.4 650.071C1268.95 649.562 1267.76 648.763 1266.82 647.674C1265.92 646.548 1265.4 645.138 1265.25 643.445C1265.1 641.751 1265.38 640.305 1266.07 639.106C1266.8 637.871 1267.86 636.909 1269.23 636.22C1270.64 635.494 1272.28 635.05 1274.14 634.887L1280.91 634.295L1280.79 632.9C1280.69 631.738 1280.24 630.823 1279.44 630.157C1278.65 629.457 1277.45 629.177 1275.86 629.316C1274.3 629.453 1273.17 629.92 1272.47 630.717C1271.76 631.481 1271.35 632.438 1271.21 633.587L1265.26 632.15C1265.55 630.854 1266.08 629.653 1266.86 628.548C1267.66 627.407 1268.76 626.457 1270.17 625.698C1271.61 624.903 1273.39 624.413 1275.51 624.227C1278.77 623.942 1281.41 624.531 1283.45 625.992C1285.48 627.454 1286.63 629.729 1286.9 632.817L1287.71 642.032C1287.8 643.028 1288.31 643.485 1289.24 643.404L1291.23 643.23L1291.68 648.41L1287.5 648.776C1286.27 648.883 1285.23 648.673 1284.38 648.145C1283.53 647.617 1283.06 646.855 1282.98 645.859L1282.97 645.809L1282.03 645.892C1281.93 646.302 1281.68 646.859 1281.27 647.564C1280.86 648.236 1280.18 648.864 1279.23 649.449C1278.27 650.035 1276.93 650.403 1275.21 650.554ZM1275.86 645.377C1277.62 645.223 1279 644.617 1280.01 643.558C1281.06 642.463 1281.51 641.102 1281.36 639.475L1281.32 638.977L1274.99 639.53C1273.83 639.632 1272.94 639.961 1272.32 640.517C1271.7 641.073 1271.43 641.8 1271.51 642.696C1271.59 643.593 1272 644.293 1272.74 644.796C1273.49 645.3 1274.53 645.494 1275.86 645.377ZM1306.73 647.094L1303.68 612.227L1325.59 610.309L1326.11 616.287L1310.77 617.629L1311.51 626.047L1325.66 624.809L1326.18 630.786L1312.03 632.024L1313.3 646.518L1306.73 647.094ZM1332.34 644.853L1329.29 609.986L1343.63 608.731C1345.82 608.539 1347.79 608.819 1349.53 609.57C1351.3 610.286 1352.72 611.399 1353.79 612.912C1354.89 614.422 1355.53 616.272 1355.73 618.464L1355.79 619.161C1355.98 621.32 1355.64 623.256 1354.79 624.97C1353.97 626.649 1352.75 628.01 1351.13 629.055C1349.55 630.063 1347.69 630.661 1345.57 630.847L1337.8 631.526L1338.91 644.278L1332.34 644.853ZM1337.27 625.549L1344.4 624.926C1345.96 624.789 1347.18 624.247 1348.07 623.3C1348.96 622.352 1349.33 621.131 1349.2 619.637L1349.16 619.139C1349.03 617.645 1348.44 616.508 1347.41 615.729C1346.37 614.95 1345.07 614.628 1343.51 614.765L1336.38 615.388L1337.27 625.549Z" fill="white"/>
<defs>
<clipPath id="clip0_2005_39">
<rect width="304" height="297" fill="white" transform="translate(502 367)"/>
</clipPath>
</defs>
</svg>
